<?xml version="1.0" encoding="UTF-8" standalone="no"?>
<!DOCTYPE svg PUBLIC "-//W3C//DTD SVG 1.1//EN"
 "http://www.w3.org/Graphics/SVG/1.1/DTD/svg11.dtd">
<!-- Generated by graphviz version 12.2.1 (20241206.2353)
 -->
<!-- Title: G Pages: 1 -->
<svg width="386pt" height="2608pt"
 viewBox="0.00 0.00 385.70 2607.95" xmlns="http://www.w3.org/2000/svg" xmlns:xlink="http://www.w3.org/1999/xlink">
<g id="graph0" class="graph" transform="scale(1 1) rotate(0) translate(21.6 2586.35)">
<title>G</title>
<polygon fill="#111111" stroke="none" points="-21.6,21.6 -21.6,-2586.35 364.1,-2586.35 364.1,21.6 -21.6,21.6"/>
<!-- .answer&#45;prompt.js -->
<g id="node1" class="node">
<title>.answer&#45;prompt.js</title>
<path fill="none" stroke="#cfffac" d="M128.46,-65.75C128.46,-65.75 20.29,-65.75 20.29,-65.75 16.33,-65.75 12.38,-61.79 12.38,-57.83 12.38,-57.83 12.38,-49.92 12.38,-49.92 12.38,-45.96 16.33,-42 20.29,-42 20.29,-42 128.46,-42 128.46,-42 132.42,-42 136.38,-45.96 136.38,-49.92 136.38,-49.92 136.38,-57.83 136.38,-57.83 136.38,-61.79 132.42,-65.75 128.46,-65.75"/>
<text text-anchor="middle" x="74.38" y="-48.45" font-family="Arial" font-size="14.00" fill="#cfffac">.answer&#45;prompt.js</text>
</g>
<!-- .answers&#45;div.js -->
<g id="node2" class="node">
<title>.answers&#45;div.js</title>
<path fill="none" stroke="#cfffac" d="M307.96,-1073.75C307.96,-1073.75 219.29,-1073.75 219.29,-1073.75 215.33,-1073.75 211.38,-1069.79 211.38,-1065.83 211.38,-1065.83 211.38,-1057.92 211.38,-1057.92 211.38,-1053.96 215.33,-1050 219.29,-1050 219.29,-1050 307.96,-1050 307.96,-1050 311.92,-1050 315.88,-1053.96 315.88,-1057.92 315.88,-1057.92 315.88,-1065.83 315.88,-1065.83 315.88,-1069.79 311.92,-1073.75 307.96,-1073.75"/>
<text text-anchor="middle" x="263.62" y="-1056.45" font-family="Arial" font-size="14.00" fill="#cfffac">.answers&#45;div.js</text>
</g>
<!-- .back.js -->
<g id="node3" class="node">
<title>.back.js</title>
<path fill="none" stroke="#cfffac" d="M286.58,-1031.75C286.58,-1031.75 240.67,-1031.75 240.67,-1031.75 236.71,-1031.75 232.75,-1027.79 232.75,-1023.83 232.75,-1023.83 232.75,-1015.92 232.75,-1015.92 232.75,-1011.96 236.71,-1008 240.67,-1008 240.67,-1008 286.58,-1008 286.58,-1008 290.54,-1008 294.5,-1011.96 294.5,-1015.92 294.5,-1015.92 294.5,-1023.83 294.5,-1023.83 294.5,-1027.79 290.54,-1031.75 286.58,-1031.75"/>
<text text-anchor="middle" x="263.62" y="-1014.45" font-family="Arial" font-size="14.00" fill="#cfffac">.back.js</text>
</g>
<!-- .bg.js -->
<g id="node4" class="node">
<title>.bg.js</title>
<path fill="none" stroke="#cfffac" d="M282.71,-1577.75C282.71,-1577.75 244.54,-1577.75 244.54,-1577.75 240.58,-1577.75 236.62,-1573.79 236.62,-1569.83 236.62,-1569.83 236.62,-1561.92 236.62,-1561.92 236.62,-1557.96 240.58,-1554 244.54,-1554 244.54,-1554 282.71,-1554 282.71,-1554 286.67,-1554 290.62,-1557.96 290.62,-1561.92 290.62,-1561.92 290.62,-1569.83 290.62,-1569.83 290.62,-1573.79 286.67,-1577.75 282.71,-1577.75"/>
<text text-anchor="middle" x="263.62" y="-1560.45" font-family="Arial" font-size="14.00" fill="#cfffac">.bg.js</text>
</g>
<!-- .bigger.js -->
<g id="node5" class="node">
<title>.bigger.js</title>
<path fill="none" stroke="#cfffac" d="M290.71,-989.75C290.71,-989.75 236.54,-989.75 236.54,-989.75 232.58,-989.75 228.62,-985.79 228.62,-981.83 228.62,-981.83 228.62,-973.92 228.62,-973.92 228.62,-969.96 232.58,-966 236.54,-966 236.54,-966 290.71,-966 290.71,-966 294.67,-966 298.62,-969.96 298.62,-973.92 298.62,-973.92 298.62,-981.83 298.62,-981.83 298.62,-985.79 294.67,-989.75 290.71,-989.75"/>
<text text-anchor="middle" x="263.62" y="-972.45" font-family="Arial" font-size="14.00" fill="#cfffac">.bigger.js</text>
</g>
<!-- .bottom&#45;right.js -->
<g id="node6" class="node">
<title>.bottom&#45;right.js</title>
<path fill="none" stroke="#cfffac" d="M119.46,-1640.75C119.46,-1640.75 29.29,-1640.75 29.29,-1640.75 25.33,-1640.75 21.38,-1636.79 21.38,-1632.83 21.38,-1632.83 21.38,-1624.92 21.38,-1624.92 21.38,-1620.96 25.33,-1617 29.29,-1617 29.29,-1617 119.46,-1617 119.46,-1617 123.42,-1617 127.38,-1620.96 127.38,-1624.92 127.38,-1624.92 127.38,-1632.83 127.38,-1632.83 127.38,-1636.79 123.42,-1640.75 119.46,-1640.75"/>
<text text-anchor="middle" x="74.38" y="-1623.45" font-family="Arial" font-size="14.00" fill="#cfffac">.bottom&#45;right.js</text>
</g>
<!-- .builder&#45;control&#45;row.js -->
<g id="node7" class="node">
<title>.builder&#45;control&#45;row.js</title>
<path fill="none" stroke="#cfffac" d="M327.83,-947.75C327.83,-947.75 199.42,-947.75 199.42,-947.75 195.46,-947.75 191.5,-943.79 191.5,-939.83 191.5,-939.83 191.5,-931.92 191.5,-931.92 191.5,-927.96 195.46,-924 199.42,-924 199.42,-924 327.83,-924 327.83,-924 331.79,-924 335.75,-927.96 335.75,-931.92 335.75,-931.92 335.75,-939.83 335.75,-939.83 335.75,-943.79 331.79,-947.75 327.83,-947.75"/>
<text text-anchor="middle" x="263.62" y="-930.45" font-family="Arial" font-size="14.00" fill="#cfffac">.builder&#45;control&#45;row.js</text>
</g>
<!-- .button.js -->
<g id="node8" class="node">
<title>.button.js</title>
<path fill="none" stroke="#cfffac" d="M291.08,-1997.75C291.08,-1997.75 236.17,-1997.75 236.17,-1997.75 232.21,-1997.75 228.25,-1993.79 228.25,-1989.83 228.25,-1989.83 228.25,-1981.92 228.25,-1981.92 228.25,-1977.96 232.21,-1974 236.17,-1974 236.17,-1974 291.08,-1974 291.08,-1974 295.04,-1974 299,-1977.96 299,-1981.92 299,-1981.92 299,-1989.83 299,-1989.83 299,-1993.79 295.04,-1997.75 291.08,-1997.75"/>
<text text-anchor="middle" x="263.62" y="-1980.45" font-family="Arial" font-size="14.00" fill="#cfffac">.button.js</text>
</g>
<!-- .card&#45;container.js -->
<g id="node9" class="node">
<title>.card&#45;container.js</title>
<path fill="none" stroke="#cfffac" d="M315.08,-1955.75C315.08,-1955.75 212.17,-1955.75 212.17,-1955.75 208.21,-1955.75 204.25,-1951.79 204.25,-1947.83 204.25,-1947.83 204.25,-1939.92 204.25,-1939.92 204.25,-1935.96 208.21,-1932 212.17,-1932 212.17,-1932 315.08,-1932 315.08,-1932 319.04,-1932 323,-1935.96 323,-1939.92 323,-1939.92 323,-1947.83 323,-1947.83 323,-1951.79 319.04,-1955.75 315.08,-1955.75"/>
<text text-anchor="middle" x="263.62" y="-1938.45" font-family="Arial" font-size="14.00" fill="#cfffac">.card&#45;container.js</text>
</g>
<!-- .card&#45;points.js -->
<g id="node10" class="node">
<title>.card&#45;points.js</title>
<path fill="none" stroke="#cfffac" d="M305.71,-1913.75C305.71,-1913.75 221.54,-1913.75 221.54,-1913.75 217.58,-1913.75 213.62,-1909.79 213.62,-1905.83 213.62,-1905.83 213.62,-1897.92 213.62,-1897.92 213.62,-1893.96 217.58,-1890 221.54,-1890 221.54,-1890 305.71,-1890 305.71,-1890 309.67,-1890 313.62,-1893.96 313.62,-1897.92 313.62,-1897.92 313.62,-1905.83 313.62,-1905.83 313.62,-1909.79 309.67,-1913.75 305.71,-1913.75"/>
<text text-anchor="middle" x="263.62" y="-1896.45" font-family="Arial" font-size="14.00" fill="#cfffac">.card&#45;points.js</text>
</g>
<!-- .card&#45;title.js -->
<g id="node11" class="node">
<title>.card&#45;title.js</title>
<path fill="none" stroke="#cfffac" d="M298.21,-1871.75C298.21,-1871.75 229.04,-1871.75 229.04,-1871.75 225.08,-1871.75 221.12,-1867.79 221.12,-1863.83 221.12,-1863.83 221.12,-1855.92 221.12,-1855.92 221.12,-1851.96 225.08,-1848 229.04,-1848 229.04,-1848 298.21,-1848 298.21,-1848 302.17,-1848 306.12,-1851.96 306.12,-1855.92 306.12,-1855.92 306.12,-1863.83 306.12,-1863.83 306.12,-1867.79 302.17,-1871.75 298.21,-1871.75"/>
<text text-anchor="middle" x="263.62" y="-1854.45" font-family="Arial" font-size="14.00" fill="#cfffac">.card&#45;title.js</text>
</g>
<!-- .card.js -->
<g id="node12" class="node">
<title>.card.js</title>
<path fill="none" stroke="#cfffac" d="M285.46,-1829.75C285.46,-1829.75 241.79,-1829.75 241.79,-1829.75 237.83,-1829.75 233.88,-1825.79 233.88,-1821.83 233.88,-1821.83 233.88,-1813.92 233.88,-1813.92 233.88,-1809.96 237.83,-1806 241.79,-1806 241.79,-1806 285.46,-1806 285.46,-1806 289.42,-1806 293.38,-1809.96 293.38,-1813.92 293.38,-1813.92 293.38,-1821.83 293.38,-1821.83 293.38,-1825.79 289.42,-1829.75 285.46,-1829.75"/>
<text text-anchor="middle" x="263.62" y="-1812.45" font-family="Arial" font-size="14.00" fill="#cfffac">.card.js</text>
</g>
<!-- .cell.js -->
<g id="node13" class="node">
<title>.cell.js</title>
<path fill="none" stroke="#cfffac" d="M282.71,-1787.75C282.71,-1787.75 244.54,-1787.75 244.54,-1787.75 240.58,-1787.75 236.62,-1783.79 236.62,-1779.83 236.62,-1779.83 236.62,-1771.92 236.62,-1771.92 236.62,-1767.96 240.58,-1764 244.54,-1764 244.54,-1764 282.71,-1764 282.71,-1764 286.67,-1764 290.62,-1767.96 290.62,-1771.92 290.62,-1771.92 290.62,-1779.83 290.62,-1779.83 290.62,-1783.79 286.67,-1787.75 282.71,-1787.75"/>
<text text-anchor="middle" x="263.62" y="-1770.45" font-family="Arial" font-size="14.00" fill="#cfffac">.cell.js</text>
</g>
<!-- .choices&#45;container.js -->
<g id="node14" class="node">
<title>.choices&#45;container.js</title>
<path fill="none" stroke="#cfffac" d="M324.83,-1745.75C324.83,-1745.75 202.42,-1745.75 202.42,-1745.75 198.46,-1745.75 194.5,-1741.79 194.5,-1737.83 194.5,-1737.83 194.5,-1729.92 194.5,-1729.92 194.5,-1725.96 198.46,-1722 202.42,-1722 202.42,-1722 324.83,-1722 324.83,-1722 328.79,-1722 332.75,-1725.96 332.75,-1729.92 332.75,-1729.92 332.75,-1737.83 332.75,-1737.83 332.75,-1741.79 328.79,-1745.75 324.83,-1745.75"/>
<text text-anchor="middle" x="263.62" y="-1728.45" font-family="Arial" font-size="14.00" fill="#cfffac">.choices&#45;container.js</text>
</g>
<!-- .code.js -->
<g id="node15" class="node">
<title>.code.js</title>
<path fill="none" stroke="#cfffac" d="M97.71,-1934.75C97.71,-1934.75 51.04,-1934.75 51.04,-1934.75 47.08,-1934.75 43.12,-1930.79 43.12,-1926.83 43.12,-1926.83 43.12,-1918.92 43.12,-1918.92 43.12,-1914.96 47.08,-1911 51.04,-1911 51.04,-1911 97.71,-1911 97.71,-1911 101.67,-1911 105.62,-1914.96 105.62,-1918.92 105.62,-1918.92 105.62,-1926.83 105.62,-1926.83 105.62,-1930.79 101.67,-1934.75 97.71,-1934.75"/>
<text text-anchor="middle" x="74.38" y="-1917.45" font-family="Arial" font-size="14.00" fill="#cfffac">.code.js</text>
</g>
<!-- .column.js -->
<g id="node16" class="node">
<title>.column.js</title>
<path fill="none" stroke="#cfffac" d="M294.46,-107.75C294.46,-107.75 232.79,-107.75 232.79,-107.75 228.83,-107.75 224.88,-103.79 224.88,-99.83 224.88,-99.83 224.88,-91.92 224.88,-91.92 224.88,-87.96 228.83,-84 232.79,-84 232.79,-84 294.46,-84 294.46,-84 298.42,-84 302.38,-87.96 302.38,-91.92 302.38,-91.92 302.38,-99.83 302.38,-99.83 302.38,-103.79 298.42,-107.75 294.46,-107.75"/>
<text text-anchor="middle" x="263.62" y="-90.45" font-family="Arial" font-size="14.00" fill="#cfffac">.column.js</text>
</g>
<!-- .container.js -->
<g id="node17" class="node">
<title>.container.js</title>
<path fill="none" stroke="#cfffac" d="M299.71,-905.75C299.71,-905.75 227.54,-905.75 227.54,-905.75 223.58,-905.75 219.62,-901.79 219.62,-897.83 219.62,-897.83 219.62,-889.92 219.62,-889.92 219.62,-885.96 223.58,-882 227.54,-882 227.54,-882 299.71,-882 299.71,-882 303.67,-882 307.62,-885.96 307.62,-889.92 307.62,-889.92 307.62,-897.83 307.62,-897.83 307.62,-901.79 303.67,-905.75 299.71,-905.75"/>
<text text-anchor="middle" x="263.62" y="-888.45" font-family="Arial" font-size="14.00" fill="#cfffac">.container.js</text>
</g>
<!-- .copy&#45;btn.js -->
<g id="node18" class="node">
<title>.copy&#45;btn.js</title>
<path fill="none" stroke="#cfffac" d="M298.21,-527.75C298.21,-527.75 229.04,-527.75 229.04,-527.75 225.08,-527.75 221.12,-523.79 221.12,-519.83 221.12,-519.83 221.12,-511.92 221.12,-511.92 221.12,-507.96 225.08,-504 229.04,-504 229.04,-504 298.21,-504 298.21,-504 302.17,-504 306.12,-507.96 306.12,-511.92 306.12,-511.92 306.12,-519.83 306.12,-519.83 306.12,-523.79 302.17,-527.75 298.21,-527.75"/>
<text text-anchor="middle" x="263.62" y="-510.45" font-family="Arial" font-size="14.00" fill="#cfffac">.copy&#45;btn.js</text>
</g>
<!-- .dropdown&#45;btn.js -->
<g id="node19" class="node">
<title>.dropdown&#45;btn.js</title>
<path fill="none" stroke="#cfffac" d="M313.58,-1535.75C313.58,-1535.75 213.67,-1535.75 213.67,-1535.75 209.71,-1535.75 205.75,-1531.79 205.75,-1527.83 205.75,-1527.83 205.75,-1519.92 205.75,-1519.92 205.75,-1515.96 209.71,-1512 213.67,-1512 213.67,-1512 313.58,-1512 313.58,-1512 317.54,-1512 321.5,-1515.96 321.5,-1519.92 321.5,-1519.92 321.5,-1527.83 321.5,-1527.83 321.5,-1531.79 317.54,-1535.75 313.58,-1535.75"/>
<text text-anchor="middle" x="263.62" y="-1518.45" font-family="Arial" font-size="14.00" fill="#cfffac">.dropdown&#45;btn.js</text>
</g>
<!-- .dropdown&#45;container.js -->
<g id="node20" class="node">
<title>.dropdown&#45;container.js</title>
<path fill="none" stroke="#cfffac" d="M331.58,-1493.75C331.58,-1493.75 195.67,-1493.75 195.67,-1493.75 191.71,-1493.75 187.75,-1489.79 187.75,-1485.83 187.75,-1485.83 187.75,-1477.92 187.75,-1477.92 187.75,-1473.96 191.71,-1470 195.67,-1470 195.67,-1470 331.58,-1470 331.58,-1470 335.54,-1470 339.5,-1473.96 339.5,-1477.92 339.5,-1477.92 339.5,-1485.83 339.5,-1485.83 339.5,-1489.79 335.54,-1493.75 331.58,-1493.75"/>
<text text-anchor="middle" x="263.62" y="-1476.45" font-family="Arial" font-size="14.00" fill="#cfffac">.dropdown&#45;container.js</text>
</g>
<!-- .dropdown&#45;menu.js -->
<g id="node21" class="node">
<title>.dropdown&#45;menu.js</title>
<path fill="none" stroke="#cfffac" d="M321.46,-1451.75C321.46,-1451.75 205.79,-1451.75 205.79,-1451.75 201.83,-1451.75 197.88,-1447.79 197.88,-1443.83 197.88,-1443.83 197.88,-1435.92 197.88,-1435.92 197.88,-1431.96 201.83,-1428 205.79,-1428 205.79,-1428 321.46,-1428 321.46,-1428 325.42,-1428 329.38,-1431.96 329.38,-1435.92 329.38,-1435.92 329.38,-1443.83 329.38,-1443.83 329.38,-1447.79 325.42,-1451.75 321.46,-1451.75"/>
<text text-anchor="middle" x="263.62" y="-1434.45" font-family="Arial" font-size="14.00" fill="#cfffac">.dropdown&#45;menu.js</text>
</g>
<!-- .fa&#45;check.js -->
<g id="node22" class="node">
<title>.fa&#45;check.js</title>
<path fill="none" stroke="#cfffac" d="M297.83,-275.75C297.83,-275.75 229.42,-275.75 229.42,-275.75 225.46,-275.75 221.5,-271.79 221.5,-267.83 221.5,-267.83 221.5,-259.92 221.5,-259.92 221.5,-255.96 225.46,-252 229.42,-252 229.42,-252 297.83,-252 297.83,-252 301.79,-252 305.75,-255.96 305.75,-259.92 305.75,-259.92 305.75,-267.83 305.75,-267.83 305.75,-271.79 301.79,-275.75 297.83,-275.75"/>
<text text-anchor="middle" x="263.62" y="-258.45" font-family="Arial" font-size="14.00" fill="#cfffac">.fa&#45;check.js</text>
</g>
<!-- .fa&#45;circle&#45;exclamation.js -->
<g id="node23" class="node">
<title>.fa&#45;circle&#45;exclamation.js</title>
<path fill="none" stroke="#cfffac" d="M334.58,-401.75C334.58,-401.75 192.67,-401.75 192.67,-401.75 188.71,-401.75 184.75,-397.79 184.75,-393.83 184.75,-393.83 184.75,-385.92 184.75,-385.92 184.75,-381.96 188.71,-378 192.67,-378 192.67,-378 334.58,-378 334.58,-378 338.54,-378 342.5,-381.96 342.5,-385.92 342.5,-385.92 342.5,-393.83 342.5,-393.83 342.5,-397.79 338.54,-401.75 334.58,-401.75"/>
<text text-anchor="middle" x="263.62" y="-384.45" font-family="Arial" font-size="14.00" fill="#cfffac">.fa&#45;circle&#45;exclamation.js</text>
</g>
<!-- .fa&#45;minus.js -->
<g id="node24" class="node">
<title>.fa&#45;minus.js</title>
<path fill="none" stroke="#cfffac" d="M298.58,-359.75C298.58,-359.75 228.67,-359.75 228.67,-359.75 224.71,-359.75 220.75,-355.79 220.75,-351.83 220.75,-351.83 220.75,-343.92 220.75,-343.92 220.75,-339.96 224.71,-336 228.67,-336 228.67,-336 298.58,-336 298.58,-336 302.54,-336 306.5,-339.96 306.5,-343.92 306.5,-343.92 306.5,-351.83 306.5,-351.83 306.5,-355.79 302.54,-359.75 298.58,-359.75"/>
<text text-anchor="middle" x="263.62" y="-342.45" font-family="Arial" font-size="14.00" fill="#cfffac">.fa&#45;minus.js</text>
</g>
<!-- .fa&#45;solid.js -->
<g id="node25" class="node">
<title>.fa&#45;solid.js</title>
<path fill="none" stroke="#cfffac" d="M294.08,-443.75C294.08,-443.75 233.17,-443.75 233.17,-443.75 229.21,-443.75 225.25,-439.79 225.25,-435.83 225.25,-435.83 225.25,-427.92 225.25,-427.92 225.25,-423.96 229.21,-420 233.17,-420 233.17,-420 294.08,-420 294.08,-420 298.04,-420 302,-423.96 302,-427.92 302,-427.92 302,-435.83 302,-435.83 302,-439.79 298.04,-443.75 294.08,-443.75"/>
<text text-anchor="middle" x="263.62" y="-426.45" font-family="Arial" font-size="14.00" fill="#cfffac">.fa&#45;solid.js</text>
</g>
<!-- .fa&#45;trash&#45;can.js -->
<g id="node26" class="node">
<title>.fa&#45;trash&#45;can.js</title>
<path fill="none" stroke="#cfffac" d="M308.33,-737.75C308.33,-737.75 218.92,-737.75 218.92,-737.75 214.96,-737.75 211,-733.79 211,-729.83 211,-729.83 211,-721.92 211,-721.92 211,-717.96 214.96,-714 218.92,-714 218.92,-714 308.33,-714 308.33,-714 312.29,-714 316.25,-717.96 316.25,-721.92 316.25,-721.92 316.25,-729.83 316.25,-729.83 316.25,-733.79 312.29,-737.75 308.33,-737.75"/>
<text text-anchor="middle" x="263.62" y="-720.45" font-family="Arial" font-size="14.00" fill="#cfffac">.fa&#45;trash&#45;can.js</text>
</g>
<!-- .fa&#45;unlock.js -->
<g id="node27" class="node">
<title>.fa&#45;unlock.js</title>
<path fill="none" stroke="#cfffac" d="M299.71,-485.75C299.71,-485.75 227.54,-485.75 227.54,-485.75 223.58,-485.75 219.62,-481.79 219.62,-477.83 219.62,-477.83 219.62,-469.92 219.62,-469.92 219.62,-465.96 223.58,-462 227.54,-462 227.54,-462 299.71,-462 299.71,-462 303.67,-462 307.62,-465.96 307.62,-469.92 307.62,-469.92 307.62,-477.83 307.62,-477.83 307.62,-481.79 303.67,-485.75 299.71,-485.75"/>
<text text-anchor="middle" x="263.62" y="-468.45" font-family="Arial" font-size="14.00" fill="#cfffac">.fa&#45;unlock.js</text>
</g>
<!-- .fa&#45;xmark.js -->
<g id="node28" class="node">
<title>.fa&#45;xmark.js</title>
<path fill="none" stroke="#cfffac" d="M298.96,-611.75C298.96,-611.75 228.29,-611.75 228.29,-611.75 224.33,-611.75 220.38,-607.79 220.38,-603.83 220.38,-603.83 220.38,-595.92 220.38,-595.92 220.38,-591.96 224.33,-588 228.29,-588 228.29,-588 298.96,-588 298.96,-588 302.92,-588 306.88,-591.96 306.88,-595.92 306.88,-595.92 306.88,-603.83 306.88,-603.83 306.88,-607.79 302.92,-611.75 298.96,-611.75"/>
<text text-anchor="middle" x="263.62" y="-594.45" font-family="Arial" font-size="14.00" fill="#cfffac">.fa&#45;xmark.js</text>
</g>
<!-- .gen&#45;div.js -->
<g id="node29" class="node">
<title>.gen&#45;div.js</title>
<path fill="none" stroke="#cfffac" d="M294.08,-863.75C294.08,-863.75 233.17,-863.75 233.17,-863.75 229.21,-863.75 225.25,-859.79 225.25,-855.83 225.25,-855.83 225.25,-847.92 225.25,-847.92 225.25,-843.96 229.21,-840 233.17,-840 233.17,-840 294.08,-840 294.08,-840 298.04,-840 302,-843.96 302,-847.92 302,-847.92 302,-855.83 302,-855.83 302,-859.79 298.04,-863.75 294.08,-863.75"/>
<text text-anchor="middle" x="263.62" y="-846.45" font-family="Arial" font-size="14.00" fill="#cfffac">.gen&#45;div.js</text>
</g>
<!-- .grid.js -->
<g id="node30" class="node">
<title>.grid.js</title>
<path fill="none" stroke="#cfffac" d="M283.58,-2081.75C283.58,-2081.75 243.67,-2081.75 243.67,-2081.75 239.71,-2081.75 235.75,-2077.79 235.75,-2073.83 235.75,-2073.83 235.75,-2065.92 235.75,-2065.92 235.75,-2061.96 239.71,-2058 243.67,-2058 243.67,-2058 283.58,-2058 283.58,-2058 287.54,-2058 291.5,-2061.96 291.5,-2065.92 291.5,-2065.92 291.5,-2073.83 291.5,-2073.83 291.5,-2077.79 287.54,-2081.75 283.58,-2081.75"/>
<text text-anchor="middle" x="263.62" y="-2064.45" font-family="Arial" font-size="14.00" fill="#cfffac">.grid.js</text>
</g>
<!-- .header.js -->
<g id="node31" class="node">
<title>.header.js</title>
<path fill="none" stroke="#cfffac" d="M292.96,-2039.75C292.96,-2039.75 234.29,-2039.75 234.29,-2039.75 230.33,-2039.75 226.38,-2035.79 226.38,-2031.83 226.38,-2031.83 226.38,-2023.92 226.38,-2023.92 226.38,-2019.96 230.33,-2016 234.29,-2016 234.29,-2016 292.96,-2016 292.96,-2016 296.92,-2016 300.88,-2019.96 300.88,-2023.92 300.88,-2023.92 300.88,-2031.83 300.88,-2031.83 300.88,-2035.79 296.92,-2039.75 292.96,-2039.75"/>
<text text-anchor="middle" x="263.62" y="-2022.45" font-family="Arial" font-size="14.00" fill="#cfffac">.header.js</text>
</g>
<!-- .hidden.js -->
<g id="node32" class="node">
<title>.hidden.js</title>
<path fill="none" stroke="#cfffac" d="M292.58,-821.75C292.58,-821.75 234.67,-821.75 234.67,-821.75 230.71,-821.75 226.75,-817.79 226.75,-813.83 226.75,-813.83 226.75,-805.92 226.75,-805.92 226.75,-801.96 230.71,-798 234.67,-798 234.67,-798 292.58,-798 292.58,-798 296.54,-798 300.5,-801.96 300.5,-805.92 300.5,-805.92 300.5,-813.83 300.5,-813.83 300.5,-817.79 296.54,-821.75 292.58,-821.75"/>
<text text-anchor="middle" x="263.62" y="-804.45" font-family="Arial" font-size="14.00" fill="#cfffac">.hidden.js</text>
</g>
<!-- .hover&#45;container.js -->
<g id="node33" class="node">
<title>.hover&#45;container.js</title>
<path fill="none" stroke="#cfffac" d="M129.58,-2102.75C129.58,-2102.75 19.17,-2102.75 19.17,-2102.75 15.21,-2102.75 11.25,-2098.79 11.25,-2094.83 11.25,-2094.83 11.25,-2086.92 11.25,-2086.92 11.25,-2082.96 15.21,-2079 19.17,-2079 19.17,-2079 129.58,-2079 129.58,-2079 133.54,-2079 137.5,-2082.96 137.5,-2086.92 137.5,-2086.92 137.5,-2094.83 137.5,-2094.83 137.5,-2098.79 133.54,-2102.75 129.58,-2102.75"/>
<text text-anchor="middle" x="74.38" y="-2085.45" font-family="Arial" font-size="14.00" fill="#cfffac">.hover&#45;container.js</text>
</g>
<!-- .icon&#45;btn.js -->
<g id="node34" class="node">
<title>.icon&#45;btn.js</title>
<path fill="none" stroke="#cfffac" d="M296.33,-233.75C296.33,-233.75 230.92,-233.75 230.92,-233.75 226.96,-233.75 223,-229.79 223,-225.83 223,-225.83 223,-217.92 223,-217.92 223,-213.96 226.96,-210 230.92,-210 230.92,-210 296.33,-210 296.33,-210 300.29,-210 304.25,-213.96 304.25,-217.92 304.25,-217.92 304.25,-225.83 304.25,-225.83 304.25,-229.79 300.29,-233.75 296.33,-233.75"/>
<text text-anchor="middle" x="263.62" y="-216.45" font-family="Arial" font-size="14.00" fill="#cfffac">.icon&#45;btn.js</text>
</g>
<!-- .icon&#45;container.js -->
<g id="node35" class="node">
<title>.icon&#45;container.js</title>
<path fill="none" stroke="#cfffac" d="M314.33,-1283.75C314.33,-1283.75 212.92,-1283.75 212.92,-1283.75 208.96,-1283.75 205,-1279.79 205,-1275.83 205,-1275.83 205,-1267.92 205,-1267.92 205,-1263.96 208.96,-1260 212.92,-1260 212.92,-1260 314.33,-1260 314.33,-1260 318.29,-1260 322.25,-1263.96 322.25,-1267.92 322.25,-1267.92 322.25,-1275.83 322.25,-1275.83 322.25,-1279.79 318.29,-1283.75 314.33,-1283.75"/>
<text text-anchor="middle" x="263.62" y="-1266.45" font-family="Arial" font-size="14.00" fill="#cfffac">.icon&#45;container.js</text>
</g>
<!-- .icon.js -->
<g id="node36" class="node">
<title>.icon.js</title>
<path fill="none" stroke="#cfffac" d="M95.46,-2144.75C95.46,-2144.75 53.29,-2144.75 53.29,-2144.75 49.33,-2144.75 45.38,-2140.79 45.38,-2136.83 45.38,-2136.83 45.38,-2128.92 45.38,-2128.92 45.38,-2124.96 49.33,-2121 53.29,-2121 53.29,-2121 95.46,-2121 95.46,-2121 99.42,-2121 103.38,-2124.96 103.38,-2128.92 103.38,-2128.92 103.38,-2136.83 103.38,-2136.83 103.38,-2140.79 99.42,-2144.75 95.46,-2144.75"/>
<text text-anchor="middle" x="74.38" y="-2127.45" font-family="Arial" font-size="14.00" fill="#cfffac">.icon.js</text>
</g>
<!-- .indent&#45;control.js -->
<g id="node37" class="node">
<title>.indent&#45;control.js</title>
<path fill="none" stroke="#cfffac" d="M313.21,-65.75C313.21,-65.75 214.04,-65.75 214.04,-65.75 210.08,-65.75 206.12,-61.79 206.12,-57.83 206.12,-57.83 206.12,-49.92 206.12,-49.92 206.12,-45.96 210.08,-42 214.04,-42 214.04,-42 313.21,-42 313.21,-42 317.17,-42 321.12,-45.96 321.12,-49.92 321.12,-49.92 321.12,-57.83 321.12,-57.83 321.12,-61.79 317.17,-65.75 313.21,-65.75"/>
<text text-anchor="middle" x="263.62" y="-48.45" font-family="Arial" font-size="14.00" fill="#cfffac">.indent&#45;control.js</text>
</g>
<!-- .indented.js -->
<g id="node38" class="node">
<title>.indented.js</title>
<path fill="none" stroke="#cfffac" d="M108.96,-2186.75C108.96,-2186.75 39.79,-2186.75 39.79,-2186.75 35.83,-2186.75 31.88,-2182.79 31.88,-2178.83 31.88,-2178.83 31.88,-2170.92 31.88,-2170.92 31.88,-2166.96 35.83,-2163 39.79,-2163 39.79,-2163 108.96,-2163 108.96,-2163 112.92,-2163 116.88,-2166.96 116.88,-2170.92 116.88,-2170.92 116.88,-2178.83 116.88,-2178.83 116.88,-2182.79 112.92,-2186.75 108.96,-2186.75"/>
<text text-anchor="middle" x="74.38" y="-2169.45" font-family="Arial" font-size="14.00" fill="#cfffac">.indented.js</text>
</g>
<!-- .item.js -->
<g id="node39" class="node">
<title>.item.js</title>
<path fill="none" stroke="#cfffac" d="M285.46,-23.75C285.46,-23.75 241.79,-23.75 241.79,-23.75 237.83,-23.75 233.88,-19.79 233.88,-15.83 233.88,-15.83 233.88,-7.92 233.88,-7.92 233.88,-3.96 237.83,0 241.79,0 241.79,0 285.46,0 285.46,0 289.42,0 293.38,-3.96 293.38,-7.92 293.38,-7.92 293.38,-15.83 293.38,-15.83 293.38,-19.79 289.42,-23.75 285.46,-23.75"/>
<text text-anchor="middle" x="263.62" y="-6.45" font-family="Arial" font-size="14.00" fill="#cfffac">.item.js</text>
</g>
<!-- .link.js -->
<g id="node40" class="node">
<title>.link.js</title>
<path fill="none" stroke="#cfffac" d="M282.71,-653.75C282.71,-653.75 244.54,-653.75 244.54,-653.75 240.58,-653.75 236.62,-649.79 236.62,-645.83 236.62,-645.83 236.62,-637.92 236.62,-637.92 236.62,-633.96 240.58,-630 244.54,-630 244.54,-630 282.71,-630 282.71,-630 286.67,-630 290.62,-633.96 290.62,-637.92 290.62,-637.92 290.62,-645.83 290.62,-645.83 290.62,-649.79 286.67,-653.75 282.71,-653.75"/>
<text text-anchor="middle" x="263.62" y="-636.45" font-family="Arial" font-size="14.00" fill="#cfffac">.link.js</text>
</g>
<!-- .loader.js -->
<g id="node41" class="node">
<title>.loader.js</title>
<path fill="none" stroke="#cfffac" d="M290.71,-695.75C290.71,-695.75 236.54,-695.75 236.54,-695.75 232.58,-695.75 228.62,-691.79 228.62,-687.83 228.62,-687.83 228.62,-679.92 228.62,-679.92 228.62,-675.96 232.58,-672 236.54,-672 236.54,-672 290.71,-672 290.71,-672 294.67,-672 298.62,-675.96 298.62,-679.92 298.62,-679.92 298.62,-687.83 298.62,-687.83 298.62,-691.79 294.67,-695.75 290.71,-695.75"/>
<text text-anchor="middle" x="263.62" y="-678.45" font-family="Arial" font-size="14.00" fill="#cfffac">.loader.js</text>
</g>
<!-- .lockdown&#45;modal.js -->
<g id="node42" class="node">
<title>.lockdown&#45;modal.js</title>
<path fill="none" stroke="#cfffac" d="M321.46,-779.75C321.46,-779.75 205.79,-779.75 205.79,-779.75 201.83,-779.75 197.88,-775.79 197.88,-771.83 197.88,-771.83 197.88,-763.92 197.88,-763.92 197.88,-759.96 201.83,-756 205.79,-756 205.79,-756 321.46,-756 321.46,-756 325.42,-756 329.38,-759.96 329.38,-763.92 329.38,-763.92 329.38,-771.83 329.38,-771.83 329.38,-775.79 325.42,-779.75 321.46,-779.75"/>
<text text-anchor="middle" x="263.62" y="-762.45" font-family="Arial" font-size="14.00" fill="#cfffac">.lockdown&#45;modal.js</text>
</g>
<!-- .mcq.js -->
<g id="node43" class="node">
<title>.mcq.js</title>
<path fill="none" stroke="#cfffac" d="M285.46,-1241.75C285.46,-1241.75 241.79,-1241.75 241.79,-1241.75 237.83,-1241.75 233.88,-1237.79 233.88,-1233.83 233.88,-1233.83 233.88,-1225.92 233.88,-1225.92 233.88,-1221.96 237.83,-1218 241.79,-1218 241.79,-1218 285.46,-1218 285.46,-1218 289.42,-1218 293.38,-1221.96 293.38,-1225.92 293.38,-1225.92 293.38,-1233.83 293.38,-1233.83 293.38,-1237.79 289.42,-1241.75 285.46,-1241.75"/>
<text text-anchor="middle" x="263.62" y="-1224.45" font-family="Arial" font-size="14.00" fill="#cfffac">.mcq.js</text>
</g>
<!-- .missing&#45;answer.js -->
<g id="node44" class="node">
<title>.missing&#45;answer.js</title>
<path fill="none" stroke="#cfffac" d="M319.21,-1703.75C319.21,-1703.75 208.04,-1703.75 208.04,-1703.75 204.08,-1703.75 200.12,-1699.79 200.12,-1695.83 200.12,-1695.83 200.12,-1687.92 200.12,-1687.92 200.12,-1683.96 204.08,-1680 208.04,-1680 208.04,-1680 319.21,-1680 319.21,-1680 323.17,-1680 327.12,-1683.96 327.12,-1687.92 327.12,-1687.92 327.12,-1695.83 327.12,-1695.83 327.12,-1699.79 323.17,-1703.75 319.21,-1703.75"/>
<text text-anchor="middle" x="263.62" y="-1686.45" font-family="Arial" font-size="14.00" fill="#cfffac">.missing&#45;answer.js</text>
</g>
<!-- .modal.js -->
<g id="node45" class="node">
<title>.modal.js</title>
<path fill="none" stroke="#cfffac" d="M291.08,-2228.75C291.08,-2228.75 236.17,-2228.75 236.17,-2228.75 232.21,-2228.75 228.25,-2224.79 228.25,-2220.83 228.25,-2220.83 228.25,-2212.92 228.25,-2212.92 228.25,-2208.96 232.21,-2205 236.17,-2205 236.17,-2205 291.08,-2205 291.08,-2205 295.04,-2205 299,-2208.96 299,-2212.92 299,-2212.92 299,-2220.83 299,-2220.83 299,-2224.79 295.04,-2228.75 291.08,-2228.75"/>
<text text-anchor="middle" x="263.62" y="-2211.45" font-family="Arial" font-size="14.00" fill="#cfffac">.modal.js</text>
</g>
<!-- .options&#45;div.js -->
<g id="node46" class="node">
<title>.options&#45;div.js</title>
<path fill="none" stroke="#cfffac" d="M304.58,-1199.75C304.58,-1199.75 222.67,-1199.75 222.67,-1199.75 218.71,-1199.75 214.75,-1195.79 214.75,-1191.83 214.75,-1191.83 214.75,-1183.92 214.75,-1183.92 214.75,-1179.96 218.71,-1176 222.67,-1176 222.67,-1176 304.58,-1176 304.58,-1176 308.54,-1176 312.5,-1179.96 312.5,-1183.92 312.5,-1183.92 312.5,-1191.83 312.5,-1191.83 312.5,-1195.79 308.54,-1199.75 304.58,-1199.75"/>
<text text-anchor="middle" x="263.62" y="-1182.45" font-family="Arial" font-size="14.00" fill="#cfffac">.options&#45;div.js</text>
</g>
<!-- .purple.js -->
<g id="node47" class="node">
<title>.purple.js</title>
<path fill="none" stroke="#cfffac" d="M101.83,-2270.75C101.83,-2270.75 46.92,-2270.75 46.92,-2270.75 42.96,-2270.75 39,-2266.79 39,-2262.83 39,-2262.83 39,-2254.92 39,-2254.92 39,-2250.96 42.96,-2247 46.92,-2247 46.92,-2247 101.83,-2247 101.83,-2247 105.79,-2247 109.75,-2250.96 109.75,-2254.92 109.75,-2254.92 109.75,-2262.83 109.75,-2262.83 109.75,-2266.79 105.79,-2270.75 101.83,-2270.75"/>
<text text-anchor="middle" x="74.38" y="-2253.45" font-family="Arial" font-size="14.00" fill="#cfffac">.purple.js</text>
</g>
<!-- .qbuilder.js -->
<g id="node48" class="node">
<title>.qbuilder.js</title>
<path fill="none" stroke="#cfffac" d="M295.96,-1157.75C295.96,-1157.75 231.29,-1157.75 231.29,-1157.75 227.33,-1157.75 223.38,-1153.79 223.38,-1149.83 223.38,-1149.83 223.38,-1141.92 223.38,-1141.92 223.38,-1137.96 227.33,-1134 231.29,-1134 231.29,-1134 295.96,-1134 295.96,-1134 299.92,-1134 303.88,-1137.96 303.88,-1141.92 303.88,-1141.92 303.88,-1149.83 303.88,-1149.83 303.88,-1153.79 299.92,-1157.75 295.96,-1157.75"/>
<text text-anchor="middle" x="263.62" y="-1140.45" font-family="Arial" font-size="14.00" fill="#cfffac">.qbuilder.js</text>
</g>
<!-- .qouter.js -->
<g id="node49" class="node">
<title>.qouter.js</title>
<path fill="none" stroke="#cfffac" d="M101.83,-2312.75C101.83,-2312.75 46.92,-2312.75 46.92,-2312.75 42.96,-2312.75 39,-2308.79 39,-2304.83 39,-2304.83 39,-2296.92 39,-2296.92 39,-2292.96 42.96,-2289 46.92,-2289 46.92,-2289 101.83,-2289 101.83,-2289 105.79,-2289 109.75,-2292.96 109.75,-2296.92 109.75,-2296.92 109.75,-2304.83 109.75,-2304.83 109.75,-2308.79 105.79,-2312.75 101.83,-2312.75"/>
<text text-anchor="middle" x="74.38" y="-2295.45" font-family="Arial" font-size="14.00" fill="#cfffac">.qouter.js</text>
</g>
<!-- .qtype.js -->
<g id="node50" class="node">
<title>.qtype.js</title>
<path fill="none" stroke="#cfffac" d="M288.83,-1409.75C288.83,-1409.75 238.42,-1409.75 238.42,-1409.75 234.46,-1409.75 230.5,-1405.79 230.5,-1401.83 230.5,-1401.83 230.5,-1393.92 230.5,-1393.92 230.5,-1389.96 234.46,-1386 238.42,-1386 238.42,-1386 288.83,-1386 288.83,-1386 292.79,-1386 296.75,-1389.96 296.75,-1393.92 296.75,-1393.92 296.75,-1401.83 296.75,-1401.83 296.75,-1405.79 292.79,-1409.75 288.83,-1409.75"/>
<text text-anchor="middle" x="263.62" y="-1392.45" font-family="Arial" font-size="14.00" fill="#cfffac">.qtype.js</text>
</g>
<!-- .question&#45;changed.js -->
<g id="node51" class="node">
<title>.question&#45;changed.js</title>
<path fill="none" stroke="#cfffac" d="M325.96,-191.75C325.96,-191.75 201.29,-191.75 201.29,-191.75 197.33,-191.75 193.38,-187.79 193.38,-183.83 193.38,-183.83 193.38,-175.92 193.38,-175.92 193.38,-171.96 197.33,-168 201.29,-168 201.29,-168 325.96,-168 325.96,-168 329.92,-168 333.88,-171.96 333.88,-175.92 333.88,-175.92 333.88,-183.83 333.88,-183.83 333.88,-187.79 329.92,-191.75 325.96,-191.75"/>
<text text-anchor="middle" x="263.62" y="-174.45" font-family="Arial" font-size="14.00" fill="#cfffac">.question&#45;changed.js</text>
</g>
<!-- .question&#45;edit&#45;button.js -->
<g id="node52" class="node">
<title>.question&#45;edit&#45;button.js</title>
<path fill="none" stroke="#cfffac" d="M331.96,-1115.75C331.96,-1115.75 195.29,-1115.75 195.29,-1115.75 191.33,-1115.75 187.38,-1111.79 187.38,-1107.83 187.38,-1107.83 187.38,-1099.92 187.38,-1099.92 187.38,-1095.96 191.33,-1092 195.29,-1092 195.29,-1092 331.96,-1092 331.96,-1092 335.92,-1092 339.88,-1095.96 339.88,-1099.92 339.88,-1099.92 339.88,-1107.83 339.88,-1107.83 339.88,-1111.79 335.92,-1115.75 331.96,-1115.75"/>
<text text-anchor="middle" x="263.62" y="-1098.45" font-family="Arial" font-size="14.00" fill="#cfffac">.question&#45;edit&#45;button.js</text>
</g>
<!-- .question&#45;instructions.js -->
<g id="node53" class="node">
<title>.question&#45;instructions.js</title>
<path fill="none" stroke="#cfffac" d="M334.21,-1661.75C334.21,-1661.75 193.04,-1661.75 193.04,-1661.75 189.08,-1661.75 185.12,-1657.79 185.12,-1653.83 185.12,-1653.83 185.12,-1645.92 185.12,-1645.92 185.12,-1641.96 189.08,-1638 193.04,-1638 193.04,-1638 334.21,-1638 334.21,-1638 338.17,-1638 342.12,-1641.96 342.12,-1645.92 342.12,-1645.92 342.12,-1653.83 342.12,-1653.83 342.12,-1657.79 338.17,-1661.75 334.21,-1661.75"/>
<text text-anchor="middle" x="263.62" y="-1644.45" font-family="Arial" font-size="14.00" fill="#cfffac">.question&#45;instructions.js</text>
</g>
<!-- .question&#45;prompt.js -->
<g id="node54" class="node">
<title>.question&#45;prompt.js</title>
<path fill="none" stroke="#cfffac" d="M132.21,-2354.75C132.21,-2354.75 16.54,-2354.75 16.54,-2354.75 12.58,-2354.75 8.62,-2350.79 8.62,-2346.83 8.62,-2346.83 8.62,-2338.92 8.62,-2338.92 8.62,-2334.96 12.58,-2331 16.54,-2331 16.54,-2331 132.21,-2331 132.21,-2331 136.17,-2331 140.12,-2334.96 140.12,-2338.92 140.12,-2338.92 140.12,-2346.83 140.12,-2346.83 140.12,-2350.79 136.17,-2354.75 132.21,-2354.75"/>
<text text-anchor="middle" x="74.38" y="-2337.45" font-family="Arial" font-size="14.00" fill="#cfffac">.question&#45;prompt.js</text>
</g>
<!-- .readonly.js -->
<g id="node55" class="node">
<title>.readonly.js</title>
<path fill="none" stroke="#cfffac" d="M108.58,-2396.75C108.58,-2396.75 40.17,-2396.75 40.17,-2396.75 36.21,-2396.75 32.25,-2392.79 32.25,-2388.83 32.25,-2388.83 32.25,-2380.92 32.25,-2380.92 32.25,-2376.96 36.21,-2373 40.17,-2373 40.17,-2373 108.58,-2373 108.58,-2373 112.54,-2373 116.5,-2376.96 116.5,-2380.92 116.5,-2380.92 116.5,-2388.83 116.5,-2388.83 116.5,-2392.79 112.54,-2396.75 108.58,-2396.75"/>
<text text-anchor="middle" x="74.38" y="-2379.45" font-family="Arial" font-size="14.00" fill="#cfffac">.readonly.js</text>
</g>
<!-- .report.js -->
<g id="node56" class="node">
<title>.report.js</title>
<path fill="none" stroke="#cfffac" d="M289.96,-1367.75C289.96,-1367.75 237.29,-1367.75 237.29,-1367.75 233.33,-1367.75 229.38,-1363.79 229.38,-1359.83 229.38,-1359.83 229.38,-1351.92 229.38,-1351.92 229.38,-1347.96 233.33,-1344 237.29,-1344 237.29,-1344 289.96,-1344 289.96,-1344 293.92,-1344 297.88,-1347.96 297.88,-1351.92 297.88,-1351.92 297.88,-1359.83 297.88,-1359.83 297.88,-1363.79 293.92,-1367.75 289.96,-1367.75"/>
<text text-anchor="middle" x="263.62" y="-1350.45" font-family="Arial" font-size="14.00" fill="#cfffac">.report.js</text>
</g>
<!-- .right.js -->
<g id="node57" class="node">
<title>.right.js</title>
<path fill="none" stroke="#cfffac" d="M285.46,-149.75C285.46,-149.75 241.79,-149.75 241.79,-149.75 237.83,-149.75 233.88,-145.79 233.88,-141.83 233.88,-141.83 233.88,-133.92 233.88,-133.92 233.88,-129.96 237.83,-126 241.79,-126 241.79,-126 285.46,-126 285.46,-126 289.42,-126 293.38,-129.96 293.38,-133.92 293.38,-133.92 293.38,-141.83 293.38,-141.83 293.38,-145.79 289.42,-149.75 285.46,-149.75"/>
<text text-anchor="middle" x="263.62" y="-132.45" font-family="Arial" font-size="14.00" fill="#cfffac">.right.js</text>
</g>
<!-- .row.js -->
<g id="node58" class="node">
<title>.row.js</title>
<path fill="none" stroke="#cfffac" d="M282.83,-1325.75C282.83,-1325.75 244.42,-1325.75 244.42,-1325.75 240.46,-1325.75 236.5,-1321.79 236.5,-1317.83 236.5,-1317.83 236.5,-1309.92 236.5,-1309.92 236.5,-1305.96 240.46,-1302 244.42,-1302 244.42,-1302 282.83,-1302 282.83,-1302 286.79,-1302 290.75,-1305.96 290.75,-1309.92 290.75,-1309.92 290.75,-1317.83 290.75,-1317.83 290.75,-1321.79 286.79,-1325.75 282.83,-1325.75"/>
<text text-anchor="middle" x="263.62" y="-1308.45" font-family="Arial" font-size="14.00" fill="#cfffac">.row.js</text>
</g>
<!-- .slider.js -->
<g id="node59" class="node">
<title>.slider.js</title>
<path fill="none" stroke="#cfffac" d="M288.08,-2501.75C288.08,-2501.75 239.17,-2501.75 239.17,-2501.75 235.21,-2501.75 231.25,-2497.79 231.25,-2493.83 231.25,-2493.83 231.25,-2485.92 231.25,-2485.92 231.25,-2481.96 235.21,-2478 239.17,-2478 239.17,-2478 288.08,-2478 288.08,-2478 292.04,-2478 296,-2481.96 296,-2485.92 296,-2485.92 296,-2493.83 296,-2493.83 296,-2497.79 292.04,-2501.75 288.08,-2501.75"/>
<text text-anchor="middle" x="263.62" y="-2484.45" font-family="Arial" font-size="14.00" fill="#cfffac">.slider.js</text>
</g>
<!-- .span&#45;2.js -->
<g id="node60" class="node">
<title>.span&#45;2.js</title>
<path fill="none" stroke="#cfffac" d="M292.96,-1619.75C292.96,-1619.75 234.29,-1619.75 234.29,-1619.75 230.33,-1619.75 226.38,-1615.79 226.38,-1611.83 226.38,-1611.83 226.38,-1603.92 226.38,-1603.92 226.38,-1599.96 230.33,-1596 234.29,-1596 234.29,-1596 292.96,-1596 292.96,-1596 296.92,-1596 300.88,-1599.96 300.88,-1603.92 300.88,-1603.92 300.88,-1611.83 300.88,-1611.83 300.88,-1615.79 296.92,-1619.75 292.96,-1619.75"/>
<text text-anchor="middle" x="263.62" y="-1602.45" font-family="Arial" font-size="14.00" fill="#cfffac">.span&#45;2.js</text>
</g>
<!-- .submission&#45;table.js -->
<g id="node61" class="node">
<title>.submission&#45;table.js</title>
<path fill="none" stroke="#cfffac" d="M323.33,-317.75C323.33,-317.75 203.92,-317.75 203.92,-317.75 199.96,-317.75 196,-313.79 196,-309.83 196,-309.83 196,-301.92 196,-301.92 196,-297.96 199.96,-294 203.92,-294 203.92,-294 323.33,-294 323.33,-294 327.29,-294 331.25,-297.96 331.25,-301.92 331.25,-301.92 331.25,-309.83 331.25,-309.83 331.25,-313.79 327.29,-317.75 323.33,-317.75"/>
<text text-anchor="middle" x="263.62" y="-300.45" font-family="Arial" font-size="14.00" fill="#cfffac">.submission&#45;table.js</text>
</g>
<!-- .submissions&#45;table.js -->
<g id="node62" class="node">
<title>.submissions&#45;table.js</title>
<path fill="none" stroke="#cfffac" d="M326.71,-569.75C326.71,-569.75 200.54,-569.75 200.54,-569.75 196.58,-569.75 192.62,-565.79 192.62,-561.83 192.62,-561.83 192.62,-553.92 192.62,-553.92 192.62,-549.96 196.58,-546 200.54,-546 200.54,-546 326.71,-546 326.71,-546 330.67,-546 334.62,-549.96 334.62,-553.92 334.62,-553.92 334.62,-561.83 334.62,-561.83 334.62,-565.79 330.67,-569.75 326.71,-569.75"/>
<text text-anchor="middle" x="263.62" y="-552.45" font-family="Arial" font-size="14.00" fill="#cfffac">.submissions&#45;table.js</text>
</g>
<!-- .toggle&#45;container.js -->
<g id="node63" class="node">
<title>.toggle&#45;container.js</title>
<path fill="none" stroke="#cfffac" d="M320.33,-2459.75C320.33,-2459.75 206.92,-2459.75 206.92,-2459.75 202.96,-2459.75 199,-2455.79 199,-2451.83 199,-2451.83 199,-2443.92 199,-2443.92 199,-2439.96 202.96,-2436 206.92,-2436 206.92,-2436 320.33,-2436 320.33,-2436 324.29,-2436 328.25,-2439.96 328.25,-2443.92 328.25,-2443.92 328.25,-2451.83 328.25,-2451.83 328.25,-2455.79 324.29,-2459.75 320.33,-2459.75"/>
<text text-anchor="middle" x="263.62" y="-2442.45" font-family="Arial" font-size="14.00" fill="#cfffac">.toggle&#45;container.js</text>
</g>
<!-- .toggle&#45;label.js -->
<g id="node64" class="node">
<title>.toggle&#45;label.js</title>
<path fill="none" stroke="#cfffac" d="M307.21,-2417.75C307.21,-2417.75 220.04,-2417.75 220.04,-2417.75 216.08,-2417.75 212.12,-2413.79 212.12,-2409.83 212.12,-2409.83 212.12,-2401.92 212.12,-2401.92 212.12,-2397.96 216.08,-2394 220.04,-2394 220.04,-2394 307.21,-2394 307.21,-2394 311.17,-2394 315.12,-2397.96 315.12,-2401.92 315.12,-2401.92 315.12,-2409.83 315.12,-2409.83 315.12,-2413.79 311.17,-2417.75 307.21,-2417.75"/>
<text text-anchor="middle" x="263.62" y="-2400.45" font-family="Arial" font-size="14.00" fill="#cfffac">.toggle&#45;label.js</text>
</g>
<!-- .toggle&#45;switch.js -->
<g id="node65" class="node">
<title>.toggle&#45;switch.js</title>
<path fill="none" stroke="#cfffac" d="M311.71,-2375.75C311.71,-2375.75 215.54,-2375.75 215.54,-2375.75 211.58,-2375.75 207.62,-2371.79 207.62,-2367.83 207.62,-2367.83 207.62,-2359.92 207.62,-2359.92 207.62,-2355.96 211.58,-2352 215.54,-2352 215.54,-2352 311.71,-2352 311.71,-2352 315.67,-2352 319.62,-2355.96 319.62,-2359.92 319.62,-2359.92 319.62,-2367.83 319.62,-2367.83 319.62,-2371.79 315.67,-2375.75 311.71,-2375.75"/>
<text text-anchor="middle" x="263.62" y="-2358.45" font-family="Arial" font-size="14.00" fill="#cfffac">.toggle&#45;switch.js</text>
</g>
<!-- .toolbar.js -->
<g id="node66" class="node">
<title>.toolbar.js</title>
<path fill="none" stroke="#cfffac" d="M103.33,-2480.75C103.33,-2480.75 45.42,-2480.75 45.42,-2480.75 41.46,-2480.75 37.5,-2476.79 37.5,-2472.83 37.5,-2472.83 37.5,-2464.92 37.5,-2464.92 37.5,-2460.96 41.46,-2457 45.42,-2457 45.42,-2457 103.33,-2457 103.33,-2457 107.29,-2457 111.25,-2460.96 111.25,-2464.92 111.25,-2464.92 111.25,-2472.83 111.25,-2472.83 111.25,-2476.79 107.29,-2480.75 103.33,-2480.75"/>
<text text-anchor="middle" x="74.38" y="-2463.45" font-family="Arial" font-size="14.00" fill="#cfffac">.toolbar.js</text>
</g>
<!-- .tooltip&#45;container.js -->
<g id="node67" class="node">
<title>.tooltip&#45;container.js</title>
<path fill="none" stroke="#cfffac" d="M130.71,-2522.75C130.71,-2522.75 18.04,-2522.75 18.04,-2522.75 14.08,-2522.75 10.12,-2518.79 10.12,-2514.83 10.12,-2514.83 10.12,-2506.92 10.12,-2506.92 10.12,-2502.96 14.08,-2499 18.04,-2499 18.04,-2499 130.71,-2499 130.71,-2499 134.67,-2499 138.62,-2502.96 138.62,-2506.92 138.62,-2506.92 138.62,-2514.83 138.62,-2514.83 138.62,-2518.79 134.67,-2522.75 130.71,-2522.75"/>
<text text-anchor="middle" x="74.38" y="-2505.45" font-family="Arial" font-size="14.00" fill="#cfffac">.tooltip&#45;container.js</text>
</g>
<!-- .tooltip&#45;text.js -->
<g id="node68" class="node">
<title>.tooltip&#45;text.js</title>
<path fill="none" stroke="#cfffac" d="M114.21,-2564.75C114.21,-2564.75 34.54,-2564.75 34.54,-2564.75 30.58,-2564.75 26.62,-2560.79 26.62,-2556.83 26.62,-2556.83 26.62,-2548.92 26.62,-2548.92 26.62,-2544.96 30.58,-2541 34.54,-2541 34.54,-2541 114.21,-2541 114.21,-2541 118.17,-2541 122.12,-2544.96 122.12,-2548.92 122.12,-2548.92 122.12,-2556.83 122.12,-2556.83 122.12,-2560.79 118.17,-2564.75 114.21,-2564.75"/>
<text text-anchor="middle" x="74.38" y="-2547.45" font-family="Arial" font-size="14.00" fill="#cfffac">.tooltip&#45;text.js</text>
</g>
<!-- common_js.js -->
<g id="node69" class="node">
<title>common_js.js</title>
<path fill="none" stroke="#c6c5fe" d="M116.46,-821.75C116.46,-821.75 32.29,-821.75 32.29,-821.75 28.33,-821.75 24.38,-817.79 24.38,-813.83 24.38,-813.83 24.38,-805.92 24.38,-805.92 24.38,-801.96 28.33,-798 32.29,-798 32.29,-798 116.46,-798 116.46,-798 120.42,-798 124.38,-801.96 124.38,-805.92 124.38,-805.92 124.38,-813.83 124.38,-813.83 124.38,-817.79 120.42,-821.75 116.46,-821.75"/>
<text text-anchor="middle" x="74.38" y="-804.45" font-family="Arial" font-size="14.00" fill="#c6c5fe">common_js.js</text>
</g>
<!-- common_js.js&#45;&gt;.hidden.js -->
<g id="edge1" class="edge">
<title>common_js.js&#45;&gt;.hidden.js</title>
<path fill="none" stroke="#757575" d="M124.57,-809.88C152.54,-809.88 187.4,-809.88 215.09,-809.88"/>
<polygon fill="#757575" stroke="#757575" points="214.96,-813.38 224.96,-809.88 214.96,-806.38 214.96,-813.38"/>
</g>
<!-- grid_js.js -->
<g id="node70" class="node">
<title>grid_js.js</title>
<path fill="none" stroke="#c6c5fe" d="M101.08,-2060.75C101.08,-2060.75 47.67,-2060.75 47.67,-2060.75 43.71,-2060.75 39.75,-2056.79 39.75,-2052.83 39.75,-2052.83 39.75,-2044.92 39.75,-2044.92 39.75,-2040.96 43.71,-2037 47.67,-2037 47.67,-2037 101.08,-2037 101.08,-2037 105.04,-2037 109,-2040.96 109,-2044.92 109,-2044.92 109,-2052.83 109,-2052.83 109,-2056.79 105.04,-2060.75 101.08,-2060.75"/>
<text text-anchor="middle" x="74.38" y="-2043.45" font-family="Arial" font-size="14.00" fill="#c6c5fe">grid_js.js</text>
</g>
<!-- grid_js.js&#45;&gt;.grid.js -->
<g id="edge2" class="edge">
<title>grid_js.js&#45;&gt;.grid.js</title>
<path fill="none" stroke="#757575" d="M109.28,-2052.68C141.62,-2056.3 190.27,-2061.76 224.07,-2065.55"/>
<polygon fill="#757575" stroke="#757575" points="223.52,-2069.01 233.85,-2066.65 224.3,-2062.05 223.52,-2069.01"/>
</g>
<!-- grid_js.js&#45;&gt;.header.js -->
<g id="edge3" class="edge">
<title>grid_js.js&#45;&gt;.header.js</title>
<path fill="none" stroke="#757575" d="M109.28,-2045.07C138.79,-2041.76 181.88,-2036.93 214.88,-2033.23"/>
<polygon fill="#757575" stroke="#757575" points="215.04,-2036.73 224.58,-2032.14 214.26,-2029.78 215.04,-2036.73"/>
</g>
<!-- index_html.js -->
<g id="node71" class="node">
<title>index_html.js</title>
<path fill="none" stroke="#c6c5fe" d="M114.21,-674.75C114.21,-674.75 34.54,-674.75 34.54,-674.75 30.58,-674.75 26.62,-670.79 26.62,-666.83 26.62,-666.83 26.62,-658.92 26.62,-658.92 26.62,-654.96 30.58,-651 34.54,-651 34.54,-651 114.21,-651 114.21,-651 118.17,-651 122.12,-654.96 122.12,-658.92 122.12,-658.92 122.12,-666.83 122.12,-666.83 122.12,-670.79 118.17,-674.75 114.21,-674.75"/>
<text text-anchor="middle" x="74.38" y="-657.45" font-family="Arial" font-size="14.00" fill="#c6c5fe">index_html.js</text>
</g>
<!-- index_html.js&#45;&gt;.fa&#45;solid.js -->
<g id="edge4" class="edge">
<title>index_html.js&#45;&gt;.fa&#45;solid.js</title>
<path fill="none" stroke="#757575" d="M81.46,-650.53C103.18,-606.57 176.04,-459.88 184.75,-452.88 193.09,-446.18 203.38,-441.6 213.72,-438.49"/>
<polygon fill="#757575" stroke="#757575" points="214.58,-441.88 223.4,-436.02 212.85,-435.1 214.58,-441.88"/>
</g>
<!-- index_html.js&#45;&gt;.hidden.js -->
<g id="edge5" class="edge">
<title>index_html.js&#45;&gt;.hidden.js</title>
<path fill="none" stroke="#757575" d="M86.1,-675.09C100.43,-691.41 126.58,-721.25 148.75,-746.88 164.84,-765.47 163.96,-775.76 184.75,-788.88 193.98,-794.7 204.81,-798.92 215.4,-801.98"/>
<polygon fill="#757575" stroke="#757575" points="214.26,-805.3 224.82,-804.39 216,-798.52 214.26,-805.3"/>
</g>
<!-- index_html.js&#45;&gt;.link.js -->
<g id="edge6" class="edge">
<title>index_html.js&#45;&gt;.link.js</title>
<path fill="none" stroke="#757575" d="M122.14,-657.63C153.99,-654.06 195.58,-649.39 225.22,-646.07"/>
<polygon fill="#757575" stroke="#757575" points="225.29,-649.58 234.84,-644.99 224.51,-642.63 225.29,-649.58"/>
</g>
<!-- index_html.js&#45;&gt;.loader.js -->
<g id="edge7" class="edge">
<title>index_html.js&#45;&gt;.loader.js</title>
<path fill="none" stroke="#757575" d="M122.14,-668.12C151.09,-671.37 188.08,-675.51 216.84,-678.74"/>
<polygon fill="#757575" stroke="#757575" points="216.38,-682.21 226.71,-679.85 217.16,-675.25 216.38,-682.21"/>
</g>
<!-- lockdown_js.js -->
<g id="node72" class="node">
<title>lockdown_js.js</title>
<path fill="none" stroke="#c6c5fe" d="M117.96,-779.75C117.96,-779.75 30.79,-779.75 30.79,-779.75 26.83,-779.75 22.88,-775.79 22.88,-771.83 22.88,-771.83 22.88,-763.92 22.88,-763.92 22.88,-759.96 26.83,-756 30.79,-756 30.79,-756 117.96,-756 117.96,-756 121.92,-756 125.88,-759.96 125.88,-763.92 125.88,-763.92 125.88,-771.83 125.88,-771.83 125.88,-775.79 121.92,-779.75 117.96,-779.75"/>
<text text-anchor="middle" x="74.38" y="-762.45" font-family="Arial" font-size="14.00" fill="#c6c5fe">lockdown_js.js</text>
</g>
<!-- lockdown_js.js&#45;&gt;.fa&#45;solid.js -->
<g id="edge8" class="edge">
<title>lockdown_js.js&#45;&gt;.fa&#45;solid.js</title>
<path fill="none" stroke="#757575" d="M90.25,-755.64C107.37,-740.64 134.92,-713.53 148.75,-683.88 192.66,-589.7 115.38,-530.23 184.75,-452.88 192.32,-444.43 202.9,-439.23 213.82,-436.06"/>
<polygon fill="#757575" stroke="#757575" points="214.33,-439.53 223.28,-433.87 212.75,-432.71 214.33,-439.53"/>
</g>
<!-- lockdown_js.js&#45;&gt;.hidden.js -->
<g id="edge9" class="edge">
<title>lockdown_js.js&#45;&gt;.hidden.js</title>
<path fill="none" stroke="#757575" d="M126.05,-779.24C153.82,-785.47 188.02,-793.14 215.25,-799.25"/>
<polygon fill="#757575" stroke="#757575" points="214.46,-802.66 224.98,-801.43 215.99,-795.83 214.46,-802.66"/>
</g>
<!-- lockdown_js.js&#45;&gt;.lockdown&#45;modal.js -->
<g id="edge10" class="edge">
<title>lockdown_js.js&#45;&gt;.lockdown&#45;modal.js</title>
<path fill="none" stroke="#757575" d="M126.05,-767.88C144.51,-767.88 165.82,-767.88 186.04,-767.88"/>
<polygon fill="#757575" stroke="#757575" points="185.94,-771.38 195.94,-767.88 185.94,-764.38 185.94,-771.38"/>
</g>
<!-- lockdown_test_html.js -->
<g id="node73" class="node">
<title>lockdown_test_html.js</title>
<path fill="none" stroke="#c6c5fe" d="M140.83,-212.75C140.83,-212.75 7.92,-212.75 7.92,-212.75 3.96,-212.75 0,-208.79 0,-204.83 0,-204.83 0,-196.92 0,-196.92 0,-192.96 3.96,-189 7.92,-189 7.92,-189 140.83,-189 140.83,-189 144.79,-189 148.75,-192.96 148.75,-196.92 148.75,-196.92 148.75,-204.83 148.75,-204.83 148.75,-208.79 144.79,-212.75 140.83,-212.75"/>
<text text-anchor="middle" x="74.38" y="-195.45" font-family="Arial" font-size="14.00" fill="#c6c5fe">lockdown_test_html.js</text>
</g>
<!-- lockdown_test_html.js&#45;&gt;.fa&#45;solid.js -->
<g id="edge11" class="edge">
<title>lockdown_test_html.js&#45;&gt;.fa&#45;solid.js</title>
<path fill="none" stroke="#757575" d="M85.63,-213.08C101.06,-231.94 130.42,-269.79 148.75,-305.88 171.1,-349.86 148.72,-377.18 184.75,-410.88 192.8,-418.4 203.25,-423.28 213.88,-426.44"/>
<polygon fill="#757575" stroke="#757575" points="212.9,-429.8 223.44,-428.78 214.56,-423 212.9,-429.8"/>
</g>
<!-- lockdown_test_html.js&#45;&gt;.right.js -->
<g id="edge12" class="edge">
<title>lockdown_test_html.js&#45;&gt;.right.js</title>
<path fill="none" stroke="#757575" d="M104.79,-188.63C126.64,-179.77 157.29,-167.82 184.75,-158.88 196.98,-154.89 210.46,-151.06 222.72,-147.79"/>
<polygon fill="#757575" stroke="#757575" points="223.32,-151.25 232.1,-145.33 221.54,-144.48 223.32,-151.25"/>
</g>
<!-- main_js.js -->
<g id="node74" class="node">
<title>main_js.js</title>
<path fill="none" stroke="#c6c5fe" d="M104.83,-506.75C104.83,-506.75 43.92,-506.75 43.92,-506.75 39.96,-506.75 36,-502.79 36,-498.83 36,-498.83 36,-490.92 36,-490.92 36,-486.96 39.96,-483 43.92,-483 43.92,-483 104.83,-483 104.83,-483 108.79,-483 112.75,-486.96 112.75,-490.92 112.75,-490.92 112.75,-498.83 112.75,-498.83 112.75,-502.79 108.79,-506.75 104.83,-506.75"/>
<text text-anchor="middle" x="74.38" y="-489.45" font-family="Arial" font-size="14.00" fill="#c6c5fe">main_js.js</text>
</g>
<!-- main_js.js&#45;&gt;.copy&#45;btn.js -->
<g id="edge13" class="edge">
<title>main_js.js&#45;&gt;.copy&#45;btn.js</title>
<path fill="none" stroke="#757575" d="M112.82,-499.07C140.45,-502.17 178.45,-506.43 209.26,-509.89"/>
<polygon fill="#757575" stroke="#757575" points="208.85,-513.37 219.17,-511 209.63,-506.41 208.85,-513.37"/>
</g>
<!-- main_js.js&#45;&gt;.fa&#45;circle&#45;exclamation.js -->
<g id="edge14" class="edge">
<title>main_js.js&#45;&gt;.fa&#45;circle&#45;exclamation.js</title>
<path fill="none" stroke="#757575" d="M87.72,-482.72C106.89,-464.5 145.69,-430.19 184.75,-410.88 188.25,-409.15 191.9,-407.55 195.64,-406.07"/>
<polygon fill="#757575" stroke="#757575" points="196.7,-409.4 204.92,-402.72 194.33,-402.82 196.7,-409.4"/>
</g>
<!-- main_js.js&#45;&gt;.fa&#45;minus.js -->
<g id="edge15" class="edge">
<title>main_js.js&#45;&gt;.fa&#45;minus.js</title>
<path fill="none" stroke="#757575" d="M82.42,-482.71C97.69,-457.45 136.39,-399.17 184.75,-368.88 192.26,-364.17 200.81,-360.51 209.44,-357.66"/>
<polygon fill="#757575" stroke="#757575" points="210.26,-361.07 218.88,-354.9 208.3,-354.35 210.26,-361.07"/>
</g>
<!-- main_js.js&#45;&gt;.fa&#45;solid.js -->
<g id="edge16" class="edge">
<title>main_js.js&#45;&gt;.fa&#45;solid.js</title>
<path fill="none" stroke="#757575" d="M104.79,-482.63C126.64,-473.77 157.29,-461.82 184.75,-452.88 194.03,-449.85 204.03,-446.92 213.68,-444.25"/>
<polygon fill="#757575" stroke="#757575" points="214.57,-447.63 223.3,-441.64 212.74,-440.87 214.57,-447.63"/>
</g>
<!-- main_js.js&#45;&gt;.fa&#45;trash&#45;can.js -->
<g id="edge17" class="edge">
<title>main_js.js&#45;&gt;.fa&#45;trash&#45;can.js</title>
<path fill="none" stroke="#757575" d="M81.46,-507.22C103.18,-551.18 176.04,-697.87 184.75,-704.88 189.46,-708.66 194.79,-711.76 200.4,-714.31"/>
<polygon fill="#757575" stroke="#757575" points="198.73,-717.42 209.32,-717.77 201.26,-710.89 198.73,-717.42"/>
</g>
<!-- main_js.js&#45;&gt;.fa&#45;unlock.js -->
<g id="edge18" class="edge">
<title>main_js.js&#45;&gt;.fa&#45;unlock.js</title>
<path fill="none" stroke="#757575" d="M112.82,-490.68C140.07,-487.62 177.41,-483.43 207.99,-480"/>
<polygon fill="#757575" stroke="#757575" points="208.29,-483.49 217.84,-478.9 207.51,-476.53 208.29,-483.49"/>
</g>
<!-- main_js.js&#45;&gt;.link.js -->
<g id="edge19" class="edge">
<title>main_js.js&#45;&gt;.link.js</title>
<path fill="none" stroke="#757575" d="M82.42,-507.04C97.69,-532.3 136.39,-590.58 184.75,-620.88 196.89,-628.48 211.78,-633.36 225.26,-636.48"/>
<polygon fill="#757575" stroke="#757575" points="224.19,-639.84 234.69,-638.41 225.59,-632.98 224.19,-639.84"/>
</g>
<!-- main_js.js&#45;&gt;.submissions&#45;table.js -->
<g id="edge20" class="edge">
<title>main_js.js&#45;&gt;.submissions&#45;table.js</title>
<path fill="none" stroke="#757575" d="M104.79,-507.12C126.64,-515.98 157.29,-527.93 184.75,-536.88 190.57,-538.77 196.68,-540.64 202.81,-542.42"/>
<polygon fill="#757575" stroke="#757575" points="201.76,-545.76 212.34,-545.12 203.67,-539.03 201.76,-545.76"/>
</g>
<!-- parsons_js.js -->
<g id="node75" class="node">
<title>parsons_js.js</title>
<path fill="none" stroke="#c6c5fe" d="M113.83,-107.75C113.83,-107.75 34.92,-107.75 34.92,-107.75 30.96,-107.75 27,-103.79 27,-99.83 27,-99.83 27,-91.92 27,-91.92 27,-87.96 30.96,-84 34.92,-84 34.92,-84 113.83,-84 113.83,-84 117.79,-84 121.75,-87.96 121.75,-91.92 121.75,-91.92 121.75,-99.83 121.75,-99.83 121.75,-103.79 117.79,-107.75 113.83,-107.75"/>
<text text-anchor="middle" x="74.38" y="-90.45" font-family="Arial" font-size="14.00" fill="#c6c5fe">parsons_js.js</text>
</g>
<!-- parsons_js.js&#45;&gt;.column.js -->
<g id="edge21" class="edge">
<title>parsons_js.js&#45;&gt;.column.js</title>
<path fill="none" stroke="#757575" d="M122.14,-95.88C149.94,-95.88 185.17,-95.88 213.39,-95.88"/>
<polygon fill="#757575" stroke="#757575" points="213.11,-99.38 223.11,-95.88 213.11,-92.38 213.11,-99.38"/>
</g>
<!-- parsons_js.js&#45;&gt;.fa&#45;solid.js -->
<g id="edge22" class="edge">
<title>parsons_js.js&#45;&gt;.fa&#45;solid.js</title>
<path fill="none" stroke="#757575" d="M90.25,-108.11C107.37,-123.11 134.92,-150.22 148.75,-179.88 192.66,-274.05 115.38,-333.52 184.75,-410.88 192.32,-419.32 202.9,-424.52 213.82,-427.69"/>
<polygon fill="#757575" stroke="#757575" points="212.75,-431.04 223.28,-429.88 214.33,-424.22 212.75,-431.04"/>
</g>
<!-- parsons_js.js&#45;&gt;.icon&#45;btn.js -->
<g id="edge23" class="edge">
<title>parsons_js.js&#45;&gt;.icon&#45;btn.js</title>
<path fill="none" stroke="#757575" d="M84.48,-107.96C101.64,-129.87 140.98,-176.15 184.75,-200.88 193.07,-205.58 202.5,-209.27 211.84,-212.15"/>
<polygon fill="#757575" stroke="#757575" points="210.68,-215.45 221.25,-214.76 212.55,-208.71 210.68,-215.45"/>
</g>
<!-- parsons_js.js&#45;&gt;.indent&#45;control.js -->
<g id="edge24" class="edge">
<title>parsons_js.js&#45;&gt;.indent&#45;control.js</title>
<path fill="none" stroke="#757575" d="M122.14,-85.38C144.59,-80.35 171.89,-74.23 196.43,-68.72"/>
<polygon fill="#757575" stroke="#757575" points="197.01,-72.18 206,-66.58 195.48,-65.35 197.01,-72.18"/>
</g>
<!-- parsons_js.js&#45;&gt;.item.js -->
<g id="edge25" class="edge">
<title>parsons_js.js&#45;&gt;.item.js</title>
<path fill="none" stroke="#757575" d="M122.16,-86.91C131.4,-83.94 140.72,-80.03 148.75,-74.88 169.44,-61.6 163.96,-45.99 184.75,-32.88 196.11,-25.71 209.89,-20.97 222.68,-17.83"/>
<polygon fill="#757575" stroke="#757575" points="223.06,-21.33 232.1,-15.8 221.58,-14.49 223.06,-21.33"/>
</g>
<!-- parsons_js.js&#45;&gt;.right.js -->
<g id="edge26" class="edge">
<title>parsons_js.js&#45;&gt;.right.js</title>
<path fill="none" stroke="#757575" d="M122.14,-106.37C153.03,-113.29 193.09,-122.28 222.52,-128.88"/>
<polygon fill="#757575" stroke="#757575" points="221.63,-132.27 232.16,-131.04 223.16,-125.44 221.63,-132.27"/>
</g>
<!-- plotting_js.js -->
<g id="node76" class="node">
<title>plotting_js.js</title>
<path fill="none" stroke="#c6c5fe" d="M111.58,-2438.75C111.58,-2438.75 37.17,-2438.75 37.17,-2438.75 33.21,-2438.75 29.25,-2434.79 29.25,-2430.83 29.25,-2430.83 29.25,-2422.92 29.25,-2422.92 29.25,-2418.96 33.21,-2415 37.17,-2415 37.17,-2415 111.58,-2415 111.58,-2415 115.54,-2415 119.5,-2418.96 119.5,-2422.92 119.5,-2422.92 119.5,-2430.83 119.5,-2430.83 119.5,-2434.79 115.54,-2438.75 111.58,-2438.75"/>
<text text-anchor="middle" x="74.38" y="-2421.45" font-family="Arial" font-size="14.00" fill="#c6c5fe">plotting_js.js</text>
</g>
<!-- plotting_js.js&#45;&gt;.slider.js -->
<g id="edge27" class="edge">
<title>plotting_js.js&#45;&gt;.slider.js</title>
<path fill="none" stroke="#757575" d="M119.84,-2437.67C129.53,-2440.56 139.61,-2443.97 148.75,-2447.88 165.79,-2455.15 167.66,-2461.73 184.75,-2468.88 195.91,-2473.54 208.41,-2477.45 220.07,-2480.58"/>
<polygon fill="#757575" stroke="#757575" points="218.9,-2483.89 229.45,-2482.97 220.63,-2477.11 218.9,-2483.89"/>
</g>
<!-- plotting_js.js&#45;&gt;.toggle&#45;container.js -->
<g id="edge28" class="edge">
<title>plotting_js.js&#45;&gt;.toggle&#45;container.js</title>
<path fill="none" stroke="#757575" d="M119.75,-2431.85C140.01,-2434.12 164.57,-2436.88 187.58,-2439.46"/>
<polygon fill="#757575" stroke="#757575" points="186.89,-2442.9 197.22,-2440.54 187.67,-2435.95 186.89,-2442.9"/>
</g>
<!-- plotting_js.js&#45;&gt;.toggle&#45;label.js -->
<g id="edge29" class="edge">
<title>plotting_js.js&#45;&gt;.toggle&#45;label.js</title>
<path fill="none" stroke="#757575" d="M119.75,-2421.9C143.98,-2419.18 174.35,-2415.77 200.86,-2412.8"/>
<polygon fill="#757575" stroke="#757575" points="200.9,-2416.32 210.45,-2411.73 200.12,-2409.36 200.9,-2416.32"/>
</g>
<!-- plotting_js.js&#45;&gt;.toggle&#45;switch.js -->
<g id="edge30" class="edge">
<title>plotting_js.js&#45;&gt;.toggle&#45;switch.js</title>
<path fill="none" stroke="#757575" d="M119.84,-2416.08C129.53,-2413.19 139.61,-2409.78 148.75,-2405.88 165.79,-2398.6 167.66,-2392.02 184.75,-2384.88 189.31,-2382.97 194.09,-2381.19 198.94,-2379.54"/>
<polygon fill="#757575" stroke="#757575" points="199.72,-2382.97 208.18,-2376.59 197.59,-2376.3 199.72,-2382.97"/>
</g>
<!-- popup_js.js -->
<g id="node77" class="node">
<title>popup_js.js</title>
<path fill="none" stroke="#c6c5fe" d="M108.58,-2228.75C108.58,-2228.75 40.17,-2228.75 40.17,-2228.75 36.21,-2228.75 32.25,-2224.79 32.25,-2220.83 32.25,-2220.83 32.25,-2212.92 32.25,-2212.92 32.25,-2208.96 36.21,-2205 40.17,-2205 40.17,-2205 108.58,-2205 108.58,-2205 112.54,-2205 116.5,-2208.96 116.5,-2212.92 116.5,-2212.92 116.5,-2220.83 116.5,-2220.83 116.5,-2224.79 112.54,-2228.75 108.58,-2228.75"/>
<text text-anchor="middle" x="74.38" y="-2211.45" font-family="Arial" font-size="14.00" fill="#c6c5fe">popup_js.js</text>
</g>
<!-- popup_js.js&#45;&gt;.modal.js -->
<g id="edge31" class="edge">
<title>popup_js.js&#45;&gt;.modal.js</title>
<path fill="none" stroke="#757575" d="M116.93,-2216.88C146.45,-2216.88 186.1,-2216.88 216.58,-2216.88"/>
<polygon fill="#757575" stroke="#757575" points="216.27,-2220.38 226.26,-2216.88 216.26,-2213.38 216.27,-2220.38"/>
</g>
<!-- quizanalyzer_js.js -->
<g id="node78" class="node">
<title>quizanalyzer_js.js</title>
<path fill="none" stroke="#c6c5fe" d="M127.71,-1451.75C127.71,-1451.75 21.04,-1451.75 21.04,-1451.75 17.08,-1451.75 13.12,-1447.79 13.12,-1443.83 13.12,-1443.83 13.12,-1435.92 13.12,-1435.92 13.12,-1431.96 17.08,-1428 21.04,-1428 21.04,-1428 127.71,-1428 127.71,-1428 131.67,-1428 135.62,-1431.96 135.62,-1435.92 135.62,-1435.92 135.62,-1443.83 135.62,-1443.83 135.62,-1447.79 131.67,-1451.75 127.71,-1451.75"/>
<text text-anchor="middle" x="74.38" y="-1434.45" font-family="Arial" font-size="14.00" fill="#c6c5fe">quizanalyzer_js.js</text>
</g>
<!-- quizanalyzer_js.js&#45;&gt;.bg.js -->
<g id="edge32" class="edge">
<title>quizanalyzer_js.js&#45;&gt;.bg.js</title>
<path fill="none" stroke="#757575" d="M84.48,-1451.96C101.64,-1473.87 140.98,-1520.15 184.75,-1544.88 197.23,-1551.92 212.18,-1556.69 225.62,-1559.88"/>
<polygon fill="#757575" stroke="#757575" points="224.49,-1563.21 235,-1561.88 225.95,-1556.37 224.49,-1563.21"/>
</g>
<!-- quizanalyzer_js.js&#45;&gt;.dropdown&#45;btn.js -->
<g id="edge33" class="edge">
<title>quizanalyzer_js.js&#45;&gt;.dropdown&#45;btn.js</title>
<path fill="none" stroke="#757575" d="M93.21,-1452.09C114.27,-1466.05 150.74,-1488.78 184.75,-1502.88 189.31,-1504.77 194.09,-1506.53 198.95,-1508.18"/>
<polygon fill="#757575" stroke="#757575" points="197.61,-1511.42 208.2,-1511.12 199.73,-1504.75 197.61,-1511.42"/>
</g>
<!-- quizanalyzer_js.js&#45;&gt;.dropdown&#45;container.js -->
<g id="edge34" class="edge">
<title>quizanalyzer_js.js&#45;&gt;.dropdown&#45;container.js</title>
<path fill="none" stroke="#757575" d="M130.54,-1452.25C151.21,-1456.89 174.91,-1462.2 196.47,-1467.04"/>
<polygon fill="#757575" stroke="#757575" points="195.53,-1470.41 206.05,-1469.19 197.06,-1463.58 195.53,-1470.41"/>
</g>
<!-- quizanalyzer_js.js&#45;&gt;.dropdown&#45;menu.js -->
<g id="edge35" class="edge">
<title>quizanalyzer_js.js&#45;&gt;.dropdown&#45;menu.js</title>
<path fill="none" stroke="#757575" d="M135.91,-1439.88C151.89,-1439.88 169.33,-1439.88 186.04,-1439.88"/>
<polygon fill="#757575" stroke="#757575" points="185.94,-1443.38 195.94,-1439.88 185.94,-1436.38 185.94,-1443.38"/>
</g>
<!-- quizanalyzer_js.js&#45;&gt;.qtype.js -->
<g id="edge36" class="edge">
<title>quizanalyzer_js.js&#45;&gt;.qtype.js</title>
<path fill="none" stroke="#757575" d="M130.54,-1427.5C158.74,-1421.18 192.56,-1413.59 218.92,-1407.68"/>
<polygon fill="#757575" stroke="#757575" points="219.62,-1411.11 228.61,-1405.5 218.09,-1404.28 219.62,-1411.11"/>
</g>
<!-- quizanalyzer_js.js&#45;&gt;.report.js -->
<g id="edge37" class="edge">
<title>quizanalyzer_js.js&#45;&gt;.report.js</title>
<path fill="none" stroke="#757575" d="M93.21,-1427.66C114.27,-1413.7 150.74,-1390.97 184.75,-1376.88 195.32,-1372.49 207.09,-1368.77 218.2,-1365.73"/>
<polygon fill="#757575" stroke="#757575" points="218.76,-1369.19 227.56,-1363.29 217,-1362.42 218.76,-1369.19"/>
</g>
<!-- quizanalyzer_js.js&#45;&gt;.row.js -->
<g id="edge38" class="edge">
<title>quizanalyzer_js.js&#45;&gt;.row.js</title>
<path fill="none" stroke="#757575" d="M84.48,-1427.79C101.64,-1405.88 140.98,-1359.6 184.75,-1334.88 197.01,-1327.95 211.65,-1323.23 224.91,-1320.04"/>
<polygon fill="#757575" stroke="#757575" points="225.6,-1323.47 234.64,-1317.94 224.13,-1316.63 225.6,-1323.47"/>
</g>
<!-- quizbuilder_js.js -->
<g id="node79" class="node">
<title>quizbuilder_js.js</title>
<path fill="none" stroke="#c6c5fe" d="M122.46,-989.75C122.46,-989.75 26.29,-989.75 26.29,-989.75 22.33,-989.75 18.38,-985.79 18.38,-981.83 18.38,-981.83 18.38,-973.92 18.38,-973.92 18.38,-969.96 22.33,-966 26.29,-966 26.29,-966 122.46,-966 122.46,-966 126.42,-966 130.38,-969.96 130.38,-973.92 130.38,-973.92 130.38,-981.83 130.38,-981.83 130.38,-985.79 126.42,-989.75 122.46,-989.75"/>
<text text-anchor="middle" x="74.38" y="-972.45" font-family="Arial" font-size="14.00" fill="#c6c5fe">quizbuilder_js.js</text>
</g>
<!-- quizbuilder_js.js&#45;&gt;.answers&#45;div.js -->
<g id="edge39" class="edge">
<title>quizbuilder_js.js&#45;&gt;.answers&#45;div.js</title>
<path fill="none" stroke="#757575" d="M93.21,-990.09C114.27,-1004.05 150.74,-1026.78 184.75,-1040.88 189.67,-1042.91 194.84,-1044.81 200.08,-1046.56"/>
<polygon fill="#757575" stroke="#757575" points="198.85,-1049.84 209.44,-1049.49 200.95,-1043.16 198.85,-1049.84"/>
</g>
<!-- quizbuilder_js.js&#45;&gt;.back.js -->
<g id="edge40" class="edge">
<title>quizbuilder_js.js&#45;&gt;.back.js</title>
<path fill="none" stroke="#757575" d="M130.54,-990.25C159.62,-996.77 194.68,-1004.63 221.37,-1010.62"/>
<polygon fill="#757575" stroke="#757575" points="220.25,-1013.96 230.78,-1012.73 221.79,-1007.13 220.25,-1013.96"/>
</g>
<!-- quizbuilder_js.js&#45;&gt;.bigger.js -->
<g id="edge41" class="edge">
<title>quizbuilder_js.js&#45;&gt;.bigger.js</title>
<path fill="none" stroke="#757575" d="M130.8,-977.88C158.2,-977.88 190.87,-977.88 216.83,-977.88"/>
<polygon fill="#757575" stroke="#757575" points="216.73,-981.38 226.73,-977.88 216.73,-974.38 216.73,-981.38"/>
</g>
<!-- quizbuilder_js.js&#45;&gt;.builder&#45;control&#45;row.js -->
<g id="edge42" class="edge">
<title>quizbuilder_js.js&#45;&gt;.builder&#45;control&#45;row.js</title>
<path fill="none" stroke="#757575" d="M130.54,-965.5C151.21,-960.86 174.91,-955.55 196.47,-950.71"/>
<polygon fill="#757575" stroke="#757575" points="197.06,-954.17 206.05,-948.56 195.53,-947.34 197.06,-954.17"/>
</g>
<!-- quizbuilder_js.js&#45;&gt;.container.js -->
<g id="edge43" class="edge">
<title>quizbuilder_js.js&#45;&gt;.container.js</title>
<path fill="none" stroke="#757575" d="M93.21,-965.66C114.27,-951.7 150.74,-928.97 184.75,-914.88 192.31,-911.74 200.48,-908.94 208.58,-906.49"/>
<polygon fill="#757575" stroke="#757575" points="209.41,-909.89 218.07,-903.78 207.49,-903.16 209.41,-909.89"/>
</g>
<!-- quizbuilder_js.js&#45;&gt;.fa&#45;solid.js -->
<g id="edge44" class="edge">
<title>quizbuilder_js.js&#45;&gt;.fa&#45;solid.js</title>
<path fill="none" stroke="#757575" d="M87.33,-965.56C104.38,-947.13 135.11,-910.51 148.75,-872.88 180.67,-784.81 124.66,-524.74 184.75,-452.88 192.09,-444.09 202.69,-438.78 213.71,-435.61"/>
<polygon fill="#757575" stroke="#757575" points="214.31,-439.07 223.29,-433.45 212.77,-432.24 214.31,-439.07"/>
</g>
<!-- quizbuilder_js.js&#45;&gt;.fa&#45;trash&#45;can.js -->
<g id="edge45" class="edge">
<title>quizbuilder_js.js&#45;&gt;.fa&#45;trash&#45;can.js</title>
<path fill="none" stroke="#757575" d="M85.86,-965.79C101.61,-947.08 131.36,-909.42 148.75,-872.88 173.77,-820.28 143.26,-787.75 184.75,-746.88 189.24,-742.45 194.56,-738.94 200.27,-736.14"/>
<polygon fill="#757575" stroke="#757575" points="201.53,-739.41 209.49,-732.43 198.91,-732.92 201.53,-739.41"/>
</g>
<!-- quizbuilder_js.js&#45;&gt;.fa&#45;xmark.js -->
<g id="edge46" class="edge">
<title>quizbuilder_js.js&#45;&gt;.fa&#45;xmark.js</title>
<path fill="none" stroke="#757575" d="M86.77,-965.76C103.41,-947.3 133.97,-910.32 148.75,-872.88 190.28,-767.64 109.75,-705.58 184.75,-620.88 191.22,-613.57 199.94,-608.68 209.21,-605.44"/>
<polygon fill="#757575" stroke="#757575" points="210.1,-608.83 218.78,-602.75 208.21,-602.09 210.1,-608.83"/>
</g>
<!-- quizbuilder_js.js&#45;&gt;.gen&#45;div.js -->
<g id="edge47" class="edge">
<title>quizbuilder_js.js&#45;&gt;.gen&#45;div.js</title>
<path fill="none" stroke="#757575" d="M84.48,-965.79C101.64,-943.88 140.98,-897.6 184.75,-872.88 193.79,-867.77 204.13,-863.86 214.26,-860.88"/>
<polygon fill="#757575" stroke="#757575" points="214.86,-864.34 223.63,-858.39 213.07,-857.57 214.86,-864.34"/>
</g>
<!-- quizbuilder_js.js&#45;&gt;.icon&#45;btn.js -->
<g id="edge48" class="edge">
<title>quizbuilder_js.js&#45;&gt;.icon&#45;btn.js</title>
<path fill="none" stroke="#757575" d="M87.47,-965.61C104.69,-947.24 135.65,-910.7 148.75,-872.88 171.7,-806.62 140.54,-297.3 184.75,-242.88 191.57,-234.49 201.35,-229.25 211.69,-226.02"/>
<polygon fill="#757575" stroke="#757575" points="212.23,-229.49 221.11,-223.7 210.56,-222.7 212.23,-229.49"/>
</g>
<!-- quizbuilder_js.js&#45;&gt;.icon&#45;container.js -->
<g id="edge49" class="edge">
<title>quizbuilder_js.js&#45;&gt;.icon&#45;container.js</title>
<path fill="none" stroke="#757575" d="M76.48,-990.12C81.03,-1032.96 102.13,-1177.44 184.75,-1250.88 187.72,-1253.51 190.98,-1255.82 194.45,-1257.85"/>
<polygon fill="#757575" stroke="#757575" points="192.75,-1260.92 203.28,-1262.16 195.83,-1254.63 192.75,-1260.92"/>
</g>
<!-- quizbuilder_js.js&#45;&gt;.mcq.js -->
<g id="edge50" class="edge">
<title>quizbuilder_js.js&#45;&gt;.mcq.js</title>
<path fill="none" stroke="#757575" d="M77.46,-990.11C84.67,-1028.6 112.22,-1148.28 184.75,-1208.88 195.31,-1217.69 209.23,-1222.84 222.37,-1225.83"/>
<polygon fill="#757575" stroke="#757575" points="221.67,-1229.25 232.14,-1227.66 222.96,-1222.37 221.67,-1229.25"/>
</g>
<!-- quizbuilder_js.js&#45;&gt;.options&#45;div.js -->
<g id="edge51" class="edge">
<title>quizbuilder_js.js&#45;&gt;.options&#45;div.js</title>
<path fill="none" stroke="#757575" d="M78.73,-989.77C88.77,-1023.19 121.9,-1118.62 184.75,-1166.88 190.44,-1171.24 196.96,-1174.7 203.76,-1177.44"/>
<polygon fill="#757575" stroke="#757575" points="202.57,-1180.73 213.17,-1180.69 204.86,-1174.12 202.57,-1180.73"/>
</g>
<!-- quizbuilder_js.js&#45;&gt;.qbuilder.js -->
<g id="edge52" class="edge">
<title>quizbuilder_js.js&#45;&gt;.qbuilder.js</title>
<path fill="none" stroke="#757575" d="M80.83,-989.91C94.24,-1018.1 131.62,-1088.74 184.75,-1124.88 192.99,-1130.48 202.68,-1134.59 212.36,-1137.61"/>
<polygon fill="#757575" stroke="#757575" points="211.19,-1140.92 221.76,-1140.17 213.03,-1134.16 211.19,-1140.92"/>
</g>
<!-- quizbuilder_js.js&#45;&gt;.question&#45;edit&#45;button.js -->
<g id="edge53" class="edge">
<title>quizbuilder_js.js&#45;&gt;.question&#45;edit&#45;button.js</title>
<path fill="none" stroke="#757575" d="M84.48,-989.96C101.64,-1011.87 140.98,-1058.15 184.75,-1082.88 187.55,-1084.46 190.48,-1085.92 193.48,-1087.28"/>
<polygon fill="#757575" stroke="#757575" points="191.95,-1090.44 202.53,-1090.94 194.57,-1083.95 191.95,-1090.44"/>
</g>
<!-- quizgrader_js.js -->
<g id="node80" class="node">
<title>quizgrader_js.js</title>
<path fill="none" stroke="#c6c5fe" d="M121.71,-338.75C121.71,-338.75 27.04,-338.75 27.04,-338.75 23.08,-338.75 19.12,-334.79 19.12,-330.83 19.12,-330.83 19.12,-322.92 19.12,-322.92 19.12,-318.96 23.08,-315 27.04,-315 27.04,-315 121.71,-315 121.71,-315 125.67,-315 129.62,-318.96 129.62,-322.92 129.62,-322.92 129.62,-330.83 129.62,-330.83 129.62,-334.79 125.67,-338.75 121.71,-338.75"/>
<text text-anchor="middle" x="74.38" y="-321.45" font-family="Arial" font-size="14.00" fill="#c6c5fe">quizgrader_js.js</text>
</g>
<!-- quizgrader_js.js&#45;&gt;.fa&#45;check.js -->
<g id="edge54" class="edge">
<title>quizgrader_js.js&#45;&gt;.fa&#45;check.js</title>
<path fill="none" stroke="#757575" d="M104.79,-314.63C126.64,-305.77 157.29,-293.82 184.75,-284.88 192.9,-282.22 201.6,-279.64 210.12,-277.24"/>
<polygon fill="#757575" stroke="#757575" points="210.99,-280.63 219.71,-274.6 209.14,-273.88 210.99,-280.63"/>
</g>
<!-- quizgrader_js.js&#45;&gt;.fa&#45;circle&#45;exclamation.js -->
<g id="edge55" class="edge">
<title>quizgrader_js.js&#45;&gt;.fa&#45;circle&#45;exclamation.js</title>
<path fill="none" stroke="#757575" d="M104.79,-339.12C126.64,-347.98 157.29,-359.93 184.75,-368.88 190.57,-370.77 196.68,-372.64 202.81,-374.42"/>
<polygon fill="#757575" stroke="#757575" points="201.76,-377.76 212.34,-377.12 203.67,-371.03 201.76,-377.76"/>
</g>
<!-- quizgrader_js.js&#45;&gt;.fa&#45;minus.js -->
<g id="edge56" class="edge">
<title>quizgrader_js.js&#45;&gt;.fa&#45;minus.js</title>
<path fill="none" stroke="#757575" d="M130.04,-333.01C154.92,-335.8 184.27,-339.09 209.02,-341.86"/>
<polygon fill="#757575" stroke="#757575" points="208.57,-345.33 218.9,-342.97 209.35,-338.38 208.57,-345.33"/>
</g>
<!-- quizgrader_js.js&#45;&gt;.fa&#45;solid.js -->
<g id="edge57" class="edge">
<title>quizgrader_js.js&#45;&gt;.fa&#45;solid.js</title>
<path fill="none" stroke="#757575" d="M87.72,-339.03C106.89,-357.25 145.69,-391.56 184.75,-410.88 193.87,-415.38 204.09,-419.03 214.04,-421.93"/>
<polygon fill="#757575" stroke="#757575" points="213.07,-425.29 223.64,-424.51 214.89,-418.53 213.07,-425.29"/>
</g>
<!-- quizgrader_js.js&#45;&gt;.fa&#45;xmark.js -->
<g id="edge58" class="edge">
<title>quizgrader_js.js&#45;&gt;.fa&#45;xmark.js</title>
<path fill="none" stroke="#757575" d="M82.23,-339.2C95.94,-364.13 127.26,-422.57 148.75,-473.88 167.81,-519.38 148.72,-545.18 184.75,-578.88 191.58,-585.27 200.16,-589.75 209.1,-592.89"/>
<polygon fill="#757575" stroke="#757575" points="208.05,-596.23 218.63,-595.67 210.01,-589.51 208.05,-596.23"/>
</g>
<!-- quizgrader_js.js&#45;&gt;.icon&#45;btn.js -->
<g id="edge59" class="edge">
<title>quizgrader_js.js&#45;&gt;.icon&#45;btn.js</title>
<path fill="none" stroke="#757575" d="M87.72,-314.72C106.89,-296.5 145.69,-262.19 184.75,-242.88 193.14,-238.73 202.45,-235.31 211.64,-232.53"/>
<polygon fill="#757575" stroke="#757575" points="212.56,-235.91 221.26,-229.86 210.68,-229.17 212.56,-235.91"/>
</g>
<!-- quizgrader_js.js&#45;&gt;.question&#45;changed.js -->
<g id="edge60" class="edge">
<title>quizgrader_js.js&#45;&gt;.question&#45;changed.js</title>
<path fill="none" stroke="#757575" d="M82.42,-314.71C97.69,-289.45 136.39,-231.17 184.75,-200.88 187.05,-199.43 189.45,-198.09 191.93,-196.83"/>
<polygon fill="#757575" stroke="#757575" points="193.31,-200.05 201.03,-192.8 190.47,-193.65 193.31,-200.05"/>
</g>
<!-- quizgrader_js.js&#45;&gt;.submission&#45;table.js -->
<g id="edge61" class="edge">
<title>quizgrader_js.js&#45;&gt;.submission&#45;table.js</title>
<path fill="none" stroke="#757575" d="M130.04,-320.74C147.02,-318.84 166.09,-316.7 184.36,-314.65"/>
<polygon fill="#757575" stroke="#757575" points="184.55,-318.15 194.1,-313.56 183.77,-311.2 184.55,-318.15"/>
</g>
<!-- showQuestions_js.js -->
<g id="node81" class="node">
<title>showQuestions_js.js</title>
<path fill="none" stroke="#c6c5fe" d="M136.33,-1808.75C136.33,-1808.75 12.42,-1808.75 12.42,-1808.75 8.46,-1808.75 4.5,-1804.79 4.5,-1800.83 4.5,-1800.83 4.5,-1792.92 4.5,-1792.92 4.5,-1788.96 8.46,-1785 12.42,-1785 12.42,-1785 136.33,-1785 136.33,-1785 140.29,-1785 144.25,-1788.96 144.25,-1792.92 144.25,-1792.92 144.25,-1800.83 144.25,-1800.83 144.25,-1804.79 140.29,-1808.75 136.33,-1808.75"/>
<text text-anchor="middle" x="74.38" y="-1791.45" font-family="Arial" font-size="14.00" fill="#c6c5fe">showQuestions_js.js</text>
</g>
<!-- showQuestions_js.js&#45;&gt;.button.js -->
<g id="edge62" class="edge">
<title>showQuestions_js.js&#45;&gt;.button.js</title>
<path fill="none" stroke="#757575" d="M84.56,-1809.23C98.84,-1828.61 126.98,-1867.49 148.75,-1901.88 166,-1929.12 159.22,-1945.17 184.75,-1964.88 193.98,-1972 205.44,-1976.71 216.7,-1979.83"/>
<polygon fill="#757575" stroke="#757575" points="215.81,-1983.21 226.34,-1982.09 217.41,-1976.4 215.81,-1983.21"/>
</g>
<!-- showQuestions_js.js&#45;&gt;.card&#45;container.js -->
<g id="edge63" class="edge">
<title>showQuestions_js.js&#45;&gt;.card&#45;container.js</title>
<path fill="none" stroke="#757575" d="M82.42,-1809.04C97.69,-1834.3 136.39,-1892.58 184.75,-1922.88 187.53,-1924.62 190.46,-1926.22 193.47,-1927.68"/>
<polygon fill="#757575" stroke="#757575" points="192.06,-1930.89 202.64,-1931.59 194.81,-1924.45 192.06,-1930.89"/>
</g>
<!-- showQuestions_js.js&#45;&gt;.card&#45;points.js -->
<g id="edge64" class="edge">
<title>showQuestions_js.js&#45;&gt;.card&#45;points.js</title>
<path fill="none" stroke="#757575" d="M87.72,-1809.03C106.89,-1827.25 145.69,-1861.56 184.75,-1880.88 190.46,-1883.7 196.6,-1886.18 202.83,-1888.35"/>
<polygon fill="#757575" stroke="#757575" points="201.33,-1891.55 211.92,-1891.27 203.46,-1884.88 201.33,-1891.55"/>
</g>
<!-- showQuestions_js.js&#45;&gt;.card&#45;title.js -->
<g id="edge65" class="edge">
<title>showQuestions_js.js&#45;&gt;.card&#45;title.js</title>
<path fill="none" stroke="#757575" d="M104.79,-1809.12C126.64,-1817.98 157.29,-1829.93 184.75,-1838.88 192.8,-1841.5 201.4,-1844.06 209.83,-1846.43"/>
<polygon fill="#757575" stroke="#757575" points="208.73,-1849.76 219.3,-1849.04 210.59,-1843.01 208.73,-1849.76"/>
</g>
<!-- showQuestions_js.js&#45;&gt;.card.js -->
<g id="edge66" class="edge">
<title>showQuestions_js.js&#45;&gt;.card.js</title>
<path fill="none" stroke="#757575" d="M144.57,-1804.63C170.83,-1807.58 199.85,-1810.83 222.54,-1813.38"/>
<polygon fill="#757575" stroke="#757575" points="221.95,-1816.84 232.28,-1814.47 222.73,-1809.88 221.95,-1816.84"/>
</g>
<!-- showQuestions_js.js&#45;&gt;.cell.js -->
<g id="edge67" class="edge">
<title>showQuestions_js.js&#45;&gt;.cell.js</title>
<path fill="none" stroke="#757575" d="M144.57,-1789.12C171.72,-1786.07 201.81,-1782.7 224.82,-1780.11"/>
<polygon fill="#757575" stroke="#757575" points="225.1,-1783.61 234.65,-1779.01 224.32,-1776.65 225.1,-1783.61"/>
</g>
<!-- showQuestions_js.js&#45;&gt;.choices&#45;container.js -->
<g id="edge68" class="edge">
<title>showQuestions_js.js&#45;&gt;.choices&#45;container.js</title>
<path fill="none" stroke="#757575" d="M104.79,-1784.63C126.64,-1775.77 157.29,-1763.82 184.75,-1754.88 190.57,-1752.98 196.68,-1751.11 202.81,-1749.33"/>
<polygon fill="#757575" stroke="#757575" points="203.67,-1752.72 212.34,-1746.63 201.76,-1745.99 203.67,-1752.72"/>
</g>
<!-- showQuestions_js.js&#45;&gt;.missing&#45;answer.js -->
<g id="edge69" class="edge">
<title>showQuestions_js.js&#45;&gt;.missing&#45;answer.js</title>
<path fill="none" stroke="#757575" d="M87.72,-1784.72C106.89,-1766.5 145.69,-1732.19 184.75,-1712.88 188.25,-1711.15 191.9,-1709.55 195.64,-1708.07"/>
<polygon fill="#757575" stroke="#757575" points="196.7,-1711.4 204.92,-1704.72 194.33,-1704.82 196.7,-1711.4"/>
</g>
<!-- showQuestions_js.js&#45;&gt;.question&#45;instructions.js -->
<g id="edge70" class="edge">
<title>showQuestions_js.js&#45;&gt;.question&#45;instructions.js</title>
<path fill="none" stroke="#757575" d="M82.42,-1784.71C97.69,-1759.45 136.39,-1701.17 184.75,-1670.88 187.05,-1669.43 189.45,-1668.09 191.93,-1666.83"/>
<polygon fill="#757575" stroke="#757575" points="193.31,-1670.05 201.03,-1662.8 190.47,-1663.65 193.31,-1670.05"/>
</g>
<!-- showQuestions_js.js&#45;&gt;.span&#45;2.js -->
<g id="edge71" class="edge">
<title>showQuestions_js.js&#45;&gt;.span&#45;2.js</title>
<path fill="none" stroke="#757575" d="M79.8,-1784.52C91.62,-1753.32 127.04,-1670.82 184.75,-1628.88 193.66,-1622.4 204.45,-1617.92 215.12,-1614.82"/>
<polygon fill="#757575" stroke="#757575" points="215.8,-1618.26 224.65,-1612.43 214.09,-1611.47 215.8,-1618.26"/>
</g>
<!-- toast_js.js -->
<g id="node82" class="node">
<title>toast_js.js</title>
<path fill="none" stroke="#c6c5fe" d="M104.46,-863.75C104.46,-863.75 44.29,-863.75 44.29,-863.75 40.33,-863.75 36.38,-859.79 36.38,-855.83 36.38,-855.83 36.38,-847.92 36.38,-847.92 36.38,-843.96 40.33,-840 44.29,-840 44.29,-840 104.46,-840 104.46,-840 108.42,-840 112.38,-843.96 112.38,-847.92 112.38,-847.92 112.38,-855.83 112.38,-855.83 112.38,-859.79 108.42,-863.75 104.46,-863.75"/>
<text text-anchor="middle" x="74.38" y="-846.45" font-family="Arial" font-size="14.00" fill="#c6c5fe">toast_js.js</text>
</g>
<!-- toast_js.js&#45;&gt;.hidden.js -->
<g id="edge72" class="edge">
<title>toast_js.js&#45;&gt;.hidden.js</title>
<path fill="none" stroke="#757575" d="M112.82,-843.48C142.28,-836.87 183.53,-827.62 215.29,-820.49"/>
<polygon fill="#757575" stroke="#757575" points="216.05,-823.91 225.04,-818.3 214.52,-817.08 216.05,-823.91"/>
</g>
</g>
</svg>
